<svg width="239" height="472" fill="none" xmlns="http://www.w3.org/2000/svg"><path fill-rule="evenodd" clip-rule="evenodd" d="M155.092 277.187c-24.761 91.952-79.608 125.998-128.867 138.402l-.644-2.484c48.72-12.268 102.883-45.86 127.383-136.843l2.128.925Z" fill="#E9ECE0" fill-opacity=".33"/><path fill-rule="evenodd" clip-rule="evenodd" d="M140.396 310.084c-.12.531 17.485-4.989 24.843-16.646l-24.843 16.646Z" fill="#E9ECE0" fill-opacity=".33"/><path fill-rule="evenodd" clip-rule="evenodd" d="M139.388 310.494a1.458 1.458 0 0 1-.052-.807l2.125.812a1.428 1.428 0 0 0-.478-1.396 1.019 1.019 0 0 0-.479-.221l-.003-.001a.618.618 0 0 0-.126-.009l.006-.001a3.6 3.6 0 0 0 .429-.09 23.375 23.375 0 0 0 1.98-.627c1.709-.611 4.087-1.597 6.697-2.96 5.251-2.742 11.299-6.933 14.825-12.519l1.812 1.579c-3.825 6.059-10.247 10.448-15.597 13.242-2.691 1.405-5.148 2.425-6.933 3.063-.89.318-1.625.545-2.147.677a5.223 5.223 0 0 1-.675.136c-.076.008-.23.024-.397-.003h-.001c-.06-.01-.299-.048-.546-.246a1.404 1.404 0 0 1-.44-.629Zm.976-1.621.011-.001-.011.001Z" fill="#E9ECE0" fill-opacity=".33"/><path fill-rule="evenodd" clip-rule="evenodd" d="M164.639 293.15c.764.33 9.282 2.538 10.777-11.739l-10.777 11.739Z" fill="#E9ECE0" fill-opacity=".33"/><path fill-rule="evenodd" clip-rule="evenodd" d="M166.455 294.299c-.994-.033-1.756-.245-2.044-.37l.421-1.578c.093.04.681.227 1.544.256.849.027 1.924-.1 3.016-.64 2.139-1.057 4.536-3.796 5.261-10.726l1.468.336c-.767 7.338-3.372 10.629-6.052 11.953a7.58 7.58 0 0 1-3.614.769ZM154.321 274.027c-.284.505-2.598 6.475 5.502 10.897l-5.502-10.897Z" fill="#E9ECE0" fill-opacity=".33"/><path fill-rule="evenodd" clip-rule="evenodd" d="M153.739 275.268c.134-.718.338-1.209.423-1.359l.319.252c-.058.103-.249.547-.376 1.229a7.052 7.052 0 0 0 .006 2.596c.382 2.022 1.774 4.567 5.782 6.755l-.138.384c-4.093-2.234-5.594-4.885-6.009-7.081a7.565 7.565 0 0 1-.007-2.776ZM152.432 276.753c-.276-.353-3.294-3.92-7.078 1.549l7.078-1.549Z" fill="#E9ECE0" fill-opacity=".33"/><path fill-rule="evenodd" clip-rule="evenodd" d="M150.277 274.629c1.488.298 2.446 1.441 2.621 1.667l-.907.904c-.1-.128-.792-.95-1.831-1.158-.976-.195-2.486.111-4.296 2.731l-1.01-.944c1.977-2.863 3.872-3.51 5.423-3.2ZM164.639 293.16c.765.33 1.586-1.734 10.786-11.746l-10.786 11.746Z" fill="#E9ECE0" fill-opacity=".33"/><path fill-rule="evenodd" clip-rule="evenodd" d="M165.834 293.536c-.342.316-.817.661-1.417.401l.421-1.579a.26.26 0 0 0-.191-.015c.017-.009.078-.046.201-.159.288-.267.716-.765 1.454-1.642l.306-.364c1.491-1.777 3.965-4.727 8.265-9.407l1.066 1.272c-4.279 4.657-6.738 7.588-8.224 9.359l-.306.365c-.712.847-1.207 1.429-1.575 1.769Zm-1.192-1.191.005-.002-.005.002ZM154.319 274.022c-.284.506.813 1.605 5.503 10.901l-5.503-10.901Z" fill="#E9ECE0" fill-opacity=".33"/><path fill-rule="evenodd" clip-rule="evenodd" d="M154.233 274.721c-.138-.325-.2-.59-.073-.816l.319.252c-.015.026-.046.088.088.402.13.305.379.767.794 1.522l.174.316a240.838 240.838 0 0 1 4.446 8.435l-.32.191a238.167 238.167 0 0 0-4.437-8.42l-.174-.316c-.41-.745-.674-1.233-.817-1.566ZM152.416 276.784c-.275-.352-1.096.265-7.442 1.782l7.442-1.782Z" fill="#E9ECE0" fill-opacity=".33"/><path fill-rule="evenodd" clip-rule="evenodd" d="M151.91 275.983c.232-.035.653-.067.973.343l-.908.905c.112.144.237.166.269.168-.011.001-.034.002-.071.008-.172.025-.458.104-.992.259l-.218.064c-1.067.312-2.84.829-5.822 1.544l-.353-1.406c2.957-.709 4.711-1.221 5.773-1.531l.218-.064c.503-.146.871-.251 1.131-.29Zm.342 1.417-.008-.001c.006 0 .009 0 .008.001ZM164.659 293.161c.763.33-1.937-12.237 10.766-11.731l-10.766 11.731Z" fill="#E9ECE0" fill-opacity=".33"/><path fill-rule="evenodd" clip-rule="evenodd" d="M165.188 293.875a.696.696 0 0 1-.727.088l.42-1.578a.587.587 0 0 0-.794.342v.001l-.007.021c-.001 0 .007-.04.015-.148.013-.167.02-.364.028-.615.007-.195.015-.421.028-.691.054-1.153.19-2.775.731-4.407.546-1.643 1.504-3.301 3.193-4.506 1.686-1.202 4.044-1.913 7.324-1.783l.07 1.692c-3.069-.123-5.136.547-6.54 1.548-1.4.999-2.196 2.366-2.659 3.76-.466 1.405-.592 2.83-.643 3.924l-.024.599c-.01.297-.02.568-.035.764a2.394 2.394 0 0 1-.098.568.914.914 0 0 1-.282.421ZM154.319 274.022c-.285.506 7.339 1.344 5.503 10.901l-5.503-10.901Z" fill="#E9ECE0" fill-opacity=".33"/><path fill-rule="evenodd" clip-rule="evenodd" d="M154.146 274.143a.294.294 0 0 1 .017-.243l.318.252a.181.181 0 0 0 .009-.145.11.11 0 0 0-.024-.043.802.802 0 0 0 .149.089c.101.051.227.107.38.175.113.05.24.107.382.173.652.301 1.541.761 2.383 1.515a7.266 7.266 0 0 1 2.111 3.284c.467 1.478.597 3.363.133 5.779l-.365-.124c.452-2.358.318-4.158-.118-5.539a6.782 6.782 0 0 0-1.975-3.071c-.797-.713-1.645-1.153-2.284-1.449-.127-.059-.25-.114-.362-.164a8.93 8.93 0 0 1-.411-.19 1.13 1.13 0 0 1-.241-.152.382.382 0 0 1-.102-.147ZM152.415 276.803c-.275-.351-2.255 5.403-7.917 1.6l7.917-1.6Z" fill="#E9ECE0" fill-opacity=".33"/><path fill-rule="evenodd" clip-rule="evenodd" d="M152.323 276.057a.68.68 0 0 1 .557.281l-.908.904a.609.609 0 0 0 .495.25.457.457 0 0 0 .285-.111s-.01.01-.03.036a5.933 5.933 0 0 0-.167.229c-.051.074-.113.161-.19.268-.327.451-.821 1.08-1.511 1.594-.696.519-1.594.924-2.722.923-1.127-.001-2.432-.408-3.936-1.421l.571-1.221c1.337.901 2.411 1.206 3.263 1.206.852.001 1.532-.302 2.078-.708.551-.411.961-.925 1.262-1.34l.15-.211c.088-.124.172-.243.235-.324.047-.06.131-.164.237-.239a.611.611 0 0 1 .331-.116ZM97.196 391.687c.594 1.037 12.712 13.275 20.345-.921l-20.345.921Z" fill="#E9ECE0" fill-opacity=".33"/><path fill-rule="evenodd" clip-rule="evenodd" d="M97.042 392.439a2.978 2.978 0 0 1-.32-.427l.922-.628-.001-.002s.01.016.038.053c.03.039.073.092.128.156.111.129.264.295.457.49.386.388.92.88 1.57 1.401 1.304 1.044 3.055 2.188 5.006 2.868 1.947.68 4.075.892 6.163.107 2.084-.783 4.188-2.581 6.048-6.043l.967.724c-1.958 3.643-4.233 5.643-6.588 6.527-2.352.884-4.724.633-6.836-.104-2.109-.736-3.977-1.961-5.352-3.062a20.014 20.014 0 0 1-1.68-1.501c-.21-.212-.386-.401-.522-.559ZM153.017 271.829c.977-.473 12.761-12.077.168-24.201l-.168 24.201Z" fill="#E9ECE0" fill-opacity=".33"/><path fill-rule="evenodd" clip-rule="evenodd" d="M153.656 272.104a2.18 2.18 0 0 1-.398.279l-.492-1.144c-.002 0-.002 0 0-.001a2.48 2.48 0 0 0 .203-.153 7.59 7.59 0 0 0 .471-.433c.375-.37.85-.892 1.358-1.546 1.018-1.309 2.15-3.125 2.869-5.28.717-2.151 1.018-4.62.404-7.263-.613-2.639-2.153-5.52-5.222-8.477l.661-.916c3.219 3.101 4.923 6.213 5.61 9.17.685 2.953.341 5.684-.434 8.005-.773 2.318-1.979 4.246-3.049 5.622a17.291 17.291 0 0 1-1.447 1.647 8.908 8.908 0 0 1-.534.49ZM153.152 272.694c.615.437 12.111 2.664 16.314-11.335l-16.314 11.335Z" fill="#E9ECE0" fill-opacity=".33"/><path fill-rule="evenodd" clip-rule="evenodd" d="M153.251 273.533a1.552 1.552 0 0 1-.433-.196l.64-1.293c-.03-.021-.049-.031-.049-.031 0-.001.026.012.092.032.093.029.228.063.403.098a9.6 9.6 0 0 0 1.42.158 12.567 12.567 0 0 0 4.39-.608c3.3-1.081 7.062-3.873 9.093-10.636l1.277.607c-2.171 7.23-6.255 10.321-9.905 11.516a13.718 13.718 0 0 1-4.794.664 10.682 10.682 0 0 1-1.603-.181 5.116 5.116 0 0 1-.531-.13Z" fill="#E9ECE0" fill-opacity=".33"/><path fill-rule="evenodd" clip-rule="evenodd" d="M153.051 276.854c.298-.686 1.015-13.505-11.675-18.704l11.675 18.704Z" fill="#E9ECE0" fill-opacity=".33"/><path fill-rule="evenodd" clip-rule="evenodd" d="M153.336 276.645a1.385 1.385 0 0 1-.077.336l-.414-.263v-.001c.001-.003.006-.017.013-.05.007-.035.016-.084.025-.145a6.18 6.18 0 0 0 .044-.498c.023-.414.026-.98-.018-1.658a19.589 19.589 0 0 0-1.037-5.099c-1.345-3.87-4.285-8.31-10.558-10.88l.123-.493c6.418 2.63 9.465 7.201 10.86 11.214.695 2.002.979 3.86 1.069 5.262.046.701.043 1.291.019 1.729-.012.22-.029.403-.049.546ZM127.078 303.288c-.976-.652-12.757-14.408-.213-24.211l.213 24.211Z" fill="#E9ECE0" fill-opacity=".33"/><path fill-rule="evenodd" clip-rule="evenodd" d="M127.41 302.595c.006.006.007.007.003.004l-.651 1.402a3.083 3.083 0 0 1-.43-.379 11.608 11.608 0 0 1-.544-.599 22.64 22.64 0 0 1-1.463-1.931c-1.078-1.583-2.299-3.753-3.083-6.239-.787-2.492-1.143-5.328-.452-8.202.692-2.879 2.414-5.709 5.645-8.235l.881 1.38c-3.033 2.371-4.538 4.934-5.133 7.408-.595 2.478-.299 4.956.412 7.207.712 2.257 1.833 4.258 2.843 5.741.503.74.974 1.342 1.343 1.775.185.217.341.387.461.508.097.099.151.146.168.16ZM97.26 391.619c.592 1.028 2.987-.141 20.281-.916l-20.281.916Z" fill="#E9ECE0" fill-opacity=".33"/><path fill-rule="evenodd" clip-rule="evenodd" d="M98.26 392.656c-.593-.024-1.144-.145-1.474-.719l.92-.625-.005-.005v-.001c-.001 0 .007.007.032.017.069.029.206.061.475.072.54.022 1.398-.048 2.831-.18l.598-.056c2.919-.271 7.76-.72 15.851-1.083l.135 1.26c-8.068.362-12.892.81-15.806 1.081l-.598.055c-1.405.13-2.34.208-2.958.184ZM153.103 271.976c.993-.476.018-3.588.164-24.349l-.164 24.349Z" fill="#E9ECE0" fill-opacity=".33"/><path fill-rule="evenodd" clip-rule="evenodd" d="M154.069 270.972c-.051.698-.19 1.303-.72 1.558l-.499-1.15.005-.003.001-.001m1.213-.404c.054-.725.028-1.849-.022-3.546l.022 3.546Zm-.022-3.546-.021-.723.021.723Zm-.021-.723c-.105-3.518-.279-9.342-.211-18.997l.211 18.997Zm-.211-18.997-1.1-.111 1.1.111Zm-1.1-.111c-.069 9.68.106 15.524.211 19.048l-.211-19.048Zm.211 19.048.022.722-.022-.722Zm.022.722c.051 1.729.072 2.766.025 3.404l-.025-3.404Zm.025 3.404c-.023.319-.061.481-.093.562l.093-.562Zm-.093.562a.148.148 0 0 1-.024.045l.024-.045Zm-.024.045ZM51.758 396.223c1.027.046 1.791-4.101 12.186-27.813l-12.186 27.813Z" fill="#E9ECE0" fill-opacity=".33"/><path fill-rule="evenodd" clip-rule="evenodd" d="M52.712 396.607c-.217.244-.514.448-.908.43l-.063-1.678c-.1-.004-.153.038-.153.038s.008-.007.024-.026c.072-.08.19-.257.371-.619.359-.716.858-1.933 1.669-3.941l.339-.841c1.654-4.103 4.395-10.906 9.223-21.963l1.355.835c-4.818 11.036-7.553 17.822-9.205 21.921l-.34.841c-.799 1.982-1.327 3.271-1.72 4.059-.196.39-.386.714-.592.944ZM153.152 272.698c.614.436 2.378-1.624 16.155-10.995l-16.155 10.995Z" fill="#E9ECE0" fill-opacity=".33"/><path fill-rule="evenodd" clip-rule="evenodd" d="M153.636 273.493a.96.96 0 0 1-.817-.146l.64-1.294c-.118-.083-.212-.069-.212-.07l.006-.001c.049-.012.162-.057.384-.189.439-.261 1.121-.751 2.252-1.575l.472-.344c2.304-1.681 6.125-4.468 12.565-8.848l.755 1.345c-6.423 4.37-10.232 7.148-12.533 8.826l-.472.344c-1.111.809-1.846 1.339-2.343 1.635-.245.146-.478.264-.697.317ZM153.051 276.854c.297-.685-1.723-2.754-11.675-18.703l11.675 18.703Z" fill="#E9ECE0" fill-opacity=".33"/><path fill-rule="evenodd" clip-rule="evenodd" d="M153.259 276.435c.058.192.071.378-.001.545l-.414-.264c.002-.006.016-.036-.017-.147a3.117 3.117 0 0 0-.265-.561c-.297-.528-.825-1.339-1.684-2.641l-.361-.546c-1.76-2.668-4.678-7.09-9.323-14.534l.366-.281c4.641 7.438 7.556 11.854 9.315 14.521l.361.547c.853 1.294 1.396 2.126 1.706 2.677.154.274.261.497.317.684ZM126.992 303.288c-.994-.656-.027-3.591-.223-24.375l.223 24.375Z" fill="#E9ECE0" fill-opacity=".33"/><path fill-rule="evenodd" clip-rule="evenodd" d="M127.386 302.636a.207.207 0 0 0-.054-.053l-.662 1.41c-.624-.413-.77-1.15-.823-1.863-.057-.751-.032-1.884.014-3.567l.019-.719c.098-3.499.259-9.29.168-18.957l1.465.118c.09 9.701-.071 15.518-.169 19.025l-.02.718c-.047 1.726-.065 2.745-.018 3.377.025.332.063.469.08.511Zm.008.017s-.003-.004-.008-.017a.06.06 0 0 1 .008.017ZM97.264 391.614c13.633 5.149 11.504 2.621 20.277-.915l-20.277.915Z" fill="#E9ECE0" fill-opacity=".33"/><path fill-rule="evenodd" clip-rule="evenodd" d="M109.358 395.048c-2.43.462-5.448-.26-12.25-2.837l.274-1.192c6.85 2.594 9.592 3.187 11.705 2.785 1.057-.201 1.983-.656 3.236-1.315l.329-.173c1.187-.626 2.643-1.395 4.674-2.215l.449 1.192c-1.984.801-3.402 1.549-4.587 2.174l-.329.174c-1.245.654-2.287 1.176-3.501 1.407ZM153.084 271.949c5.5-15.068 3.03-13.099.166-24.323l-.166 24.323Z" fill="#E9ECE0" fill-opacity=".33"/><path fill-rule="evenodd" clip-rule="evenodd" d="M156.833 258.324c.305 2.972-.511 6.38-3.237 13.875l-1.02-.551c2.745-7.544 3.436-10.673 3.168-13.281-.134-1.304-.511-2.508-1.058-4.139l-.144-.429c-.52-1.546-1.158-3.441-1.816-6.028l1.052-.251c.644 2.532 1.266 4.381 1.786 5.924l.144.429c.544 1.621.973 2.967 1.125 4.451ZM51.758 396.201c11.824-13.994 8.884-13.212 12.15-27.793l-12.15 27.793Z" fill="#E9ECE0" fill-opacity=".33"/><path fill-rule="evenodd" clip-rule="evenodd" d="M61.713 382.881c-1.197 3.528-3.493 6.922-9.354 13.895l-1.12-1.204c5.875-6.99 7.988-10.188 9.077-13.399.546-1.611.843-3.248 1.209-5.444l.096-.578c.346-2.083.769-4.628 1.515-7.976l1.447.53c-.736 3.3-1.151 5.803-1.497 7.884l-.096.578c-.365 2.187-.68 3.955-1.277 5.714ZM127.015 303.289c-5.522-16.057-3.052-13.641-.22-24.339l.22 24.339Z" fill="#E9ECE0" fill-opacity=".33"/><path fill-rule="evenodd" clip-rule="evenodd" d="M124.513 289.282c-.256 2.497.419 5.699 3.173 13.745l-1.35.485c-2.731-7.976-3.573-11.58-3.269-14.551.152-1.484.586-2.772 1.124-4.292l.143-.402c.514-1.447 1.128-3.173 1.762-5.576l1.397.589c-.653 2.473-1.287 4.258-1.803 5.708l-.143.402c-.542 1.53-.906 2.642-1.034 3.892ZM97.264 391.601c7.647.904 7.81-7.933 20.288-.916l-20.288.916Z" fill="#E9ECE0" fill-opacity=".33"/><path fill-rule="evenodd" clip-rule="evenodd" d="M104.182 390.339c-1.856 1.086-3.861 2.258-6.947 1.893l.026-1.257c2.734.324 4.389-.64 6.191-1.689a26.082 26.082 0 0 1 1.891-1.031c1.337-.639 2.855-1.087 4.855-.904 1.99.182 4.418.984 7.587 2.772l-.43 1.122c-3.081-1.738-5.36-2.47-7.156-2.634-1.784-.164-3.129.229-4.353.815-.558.267-1.104.586-1.664.913ZM153.144 271.988c1.226-8.884-6.998-11.042.165-24.308l-.165 24.308Z" fill="#E9ECE0" fill-opacity=".33"/><path fill-rule="evenodd" clip-rule="evenodd" d="M152.29 263.492c.908 2.436 1.882 5.053 1.393 8.611l-1.082-.288c.438-3.178-.374-5.365-1.253-7.732a42.013 42.013 0 0 1-.852-2.457c-.522-1.719-.857-3.607-.59-5.927.267-2.307 1.125-5 2.929-8.353l.947.708c-1.757 3.266-2.548 5.807-2.79 7.904-.241 2.084.056 3.771.536 5.353.219.725.488 1.445.762 2.181ZM51.758 396.223c5.387-9.467-.125-16.869 12.186-27.813l-12.186 27.813Z" fill="#E9ECE0" fill-opacity=".33"/><path fill-rule="evenodd" clip-rule="evenodd" d="M55.535 386.127c-.475 3.331-.974 6.828-3.087 10.562l-1.281-.98c1.95-3.445 2.392-6.534 2.86-9.799.153-1.067.309-2.153.52-3.277.862-4.565 2.632-9.297 8.866-14.868l.987 1.346c-5.987 5.35-7.593 9.774-8.389 13.997-.187.992-.33 1.998-.476 3.019ZM126.992 303.288c-1.252-9.121 7.003-9.786-.223-24.375l.223 24.375Z" fill="#E9ECE0" fill-opacity=".33"/><path fill-rule="evenodd" clip-rule="evenodd" d="M128.929 295.828c-.871 2.196-1.655 4.173-1.218 7.373l-1.445.12c-.508-3.719.493-6.229 1.403-8.51.271-.68.534-1.339.746-2.003.472-1.476.76-3.079.518-5.171-.243-2.109-1.032-4.771-2.796-8.349l1.264-.712c1.826 3.704 2.705 6.585 2.982 8.98.278 2.413-.061 4.275-.588 5.923-.27.845-.573 1.609-.866 2.349ZM97.264 391.536c.594 1.038 10.77-14.603 20.359-.923l-20.36.923Z" fill="#E9ECE0" fill-opacity=".33"/><path fill-rule="evenodd" clip-rule="evenodd" d="M97.364 392.229a.694.694 0 0 1-.574-.371l.924-.63a.507.507 0 0 0-.407-.271.25.25 0 0 0-.096.012 25.073 25.073 0 0 0 1.195-1.041c.17-.161.355-.337.556-.524 1.196-1.116 2.863-2.586 4.831-3.655 1.967-1.068 4.276-1.759 6.745-1.252 2.486.51 5.048 2.215 7.523 5.751l-.853.741c-2.325-3.322-4.637-4.8-6.78-5.24-2.159-.443-4.234.15-6.088 1.157-1.853 1.007-3.445 2.405-4.627 3.508-.183.171-.358.337-.524.494-.36.34-.676.638-.926.852a2.852 2.852 0 0 1-.532.38.768.768 0 0 1-.367.089Zm-.158-1.258.005-.002a.022.022 0 0 0-.005.002ZM153.202 271.984c.976-.473-12.773-15.892.168-24.19l-.168 24.19Z" fill="#E9ECE0" fill-opacity=".33"/><path fill-rule="evenodd" clip-rule="evenodd" d="M153.787 271.98c-.015.213-.114.449-.344.56l-.491-1.143a.465.465 0 0 0-.243.477 3.212 3.212 0 0 0-.211-.451 37.476 37.476 0 0 0-.677-1.187c-.138-.235-.287-.49-.446-.766-.952-1.649-2.2-3.926-3.07-6.467-.87-2.541-1.379-5.396-.8-8.176.582-2.797 2.247-5.428 5.567-7.56l.588 1.089c-3.132 2.011-4.593 4.412-5.1 6.848-.51 2.452-.073 5.03.75 7.434.823 2.403 2.013 4.582 2.955 6.213l.422.726c.291.496.545.931.725 1.271a4.3 4.3 0 0 1 .315.7c.031.1.072.259.06.432Zm-1.074-.091-.001-.006.001.006ZM51.849 396.099c1.004.046-1.426-26.048 12.888-27.764L51.85 396.099Zm0 0c1.004.046 16.104-6.859 12.037-28.335L51.85 396.099Z" fill="#E9ECE0" fill-opacity=".33"/><path fill-rule="evenodd" clip-rule="evenodd" d="M52.47 396.829c-.16.052-.378.114-.573.105l-1.278-.058.694-1.497a9.21 9.21 0 0 0 .058-.553c.038-.471.07-1.077.108-1.808.018-.349.037-.727.06-1.133.137-2.475.377-5.834 1.042-9.259 1.316-6.79 4.384-14.215 12.003-15.129l1.493-.179-1.126 2.429c1.371 9.86-1.314 16.56-4.6 20.835-1.75 2.273-3.66 3.852-5.201 4.861-.771.505-1.456.871-1.988 1.112-.265.12-.5.212-.692.274ZM63.31 369.5c-5.563 1.549-8.072 7.502-9.259 13.621-.594 3.061-.839 6.085-.98 8.465L63.31 369.5Zm.42 2.882c.56 7.959-1.786 13.427-4.547 17.018-1.636 2.127-3.425 3.605-4.863 4.546-.29.19-.565.358-.82.504l10.23-22.068ZM153.152 272.674c.613.436 7.359-15.433 16.844-10.581l-16.844 10.581Z" fill="#E9ECE0" fill-opacity=".33"/><path fill-rule="evenodd" clip-rule="evenodd" d="M153.552 273.386a.663.663 0 0 1-.726-.048l.64-1.293c-.295-.21-.547-.076-.575-.06a.24.24 0 0 0-.049.033 37.869 37.869 0 0 0 .911-1.346l.399-.625c.873-1.36 2.094-3.19 3.606-4.885 2.989-3.352 7.329-6.406 12.486-3.768l-.462 1.401c-4.341-2.221-8.127.242-11.044 3.512-1.44 1.616-2.616 3.374-3.479 4.719-.133.206-.26.405-.379.594-.264.415-.495.777-.68 1.048a4.49 4.49 0 0 1-.388.507 1.056 1.056 0 0 1-.26.211Zm-.713-1.366.003-.002a.012.012 0 0 0-.003.002ZM153.051 276.856c.298-.686-14.629-8.043-11.674-18.704l11.674 18.704Z" fill="#E9ECE0" fill-opacity=".33"/><path fill-rule="evenodd" clip-rule="evenodd" d="M153.221 276.64c.034.06.096.2.034.345l-.415-.263a.236.236 0 0 0-.014.13c.006.029.016.046.016.047l-.012-.016a.476.476 0 0 0-.042-.046 4.02 4.02 0 0 0-.395-.333c-.25-.192-.577-.427-.966-.708-.188-.135-.39-.28-.604-.436-1.314-.954-3.071-2.279-4.747-3.921-3.339-3.271-6.44-7.885-4.918-13.375l.439.195c-1.432 5.164 1.452 9.553 4.76 12.793 1.648 1.614 3.38 2.921 4.688 3.872l.594.428c.394.284.732.527.988.724.188.145.344.274.451.382a.95.95 0 0 1 .143.182ZM126.917 303.166c-.979-.652 12.781-13.564-.215-24.253l.215 24.253Z" fill="#E9ECE0" fill-opacity=".33"/><path fill-rule="evenodd" clip-rule="evenodd" d="M127.577 303.051a.812.812 0 0 0-.345-.606l-.654 1.403a1.046 1.046 0 0 1-.444-.8 1.316 1.316 0 0 1 .069-.506c.073-.222.202-.461.332-.682.183-.311.442-.706.734-1.152l.419-.643c.941-1.458 2.122-3.407 2.936-5.642.814-2.236 1.237-4.695.731-7.189-.501-2.471-1.938-5.103-5.056-7.67l.784-1.307c3.369 2.774 5.079 5.761 5.682 8.734.598 2.949.08 5.759-.797 8.166-.876 2.407-2.135 4.473-3.089 5.951-.162.251-.313.482-.451.692-.278.426-.504.772-.669 1.052a2.628 2.628 0 0 0-.194.373.555.555 0 0 0 .012-.174Zm-.012.176v-.002.002ZM133.307 353.514c1.192.815 14.851 7.592 20.854-14.338l-20.854 14.338Z" fill="#E9ECE0" fill-opacity=".33"/><path fill-rule="evenodd" clip-rule="evenodd" d="M142.124 355.675c-4.529.992-8.435-.983-9.159-1.479l.642-1.37c.467.319 3.983 2.138 8.078 1.241 4.027-.882 8.797-4.435 11.747-15.209l1.396.647c-3.051 11.143-8.107 15.163-12.704 16.17Z" fill="#E9ECE0" fill-opacity=".33"/><path fill-rule="evenodd" clip-rule="evenodd" d="M133.31 353.507c1.193.815 3.068-2.119 20.851-14.335l-20.851 14.335Z" fill="#E9ECE0" fill-opacity=".33"/><path fill-rule="evenodd" clip-rule="evenodd" d="M134.938 354.068c-.638.361-1.294.585-1.97.124l.643-1.373c-.001 0-.007-.004-.015-.005l-.003-.001s.011.002.038-.002c.084-.011.245-.061.533-.224.577-.327 1.441-.968 2.877-2.059l.599-.456c2.922-2.224 7.769-5.912 16.083-11.624l.863 1.426c-8.29 5.695-13.118 9.369-16.035 11.589l-.599.456c-1.407 1.069-2.348 1.773-3.014 2.149Z" fill="#E9ECE0" fill-opacity=".33"/><path fill-rule="evenodd" clip-rule="evenodd" d="M137.713 351.777c1.512-7 1.629-9.498 1.953-10.878l-1.953 10.878Z" fill="#E9ECE0" fill-opacity=".33"/><path fill-rule="evenodd" clip-rule="evenodd" d="M139.883 344.484c-.248 1.67-.636 4.035-1.354 7.515l-1.528-.554c.711-3.447 1.094-5.782 1.337-7.422.076-.514.14-.97.197-1.376.119-.857.208-1.491.318-1.982l1.522.583c-.095.422-.168.949-.279 1.744-.058.416-.127.905-.213 1.492ZM141.94 347.875c1.267-5.988 1.305-8.145 1.581-9.324l-1.581 9.324Z" fill="#E9ECE0" fill-opacity=".33"/><path fill-rule="evenodd" clip-rule="evenodd" d="M143.844 341.651c-.194 1.435-.505 3.465-1.106 6.443l-1.508-.546c.594-2.939.899-4.933 1.088-6.334.059-.431.107-.816.15-1.162.093-.744.163-1.305.259-1.734l1.5.579c-.078.349-.132.785-.216 1.456-.045.358-.098.783-.167 1.298ZM146.589 344.289c.872-4.336.781-5.937.978-6.788l-.978 6.788Z" fill="#E9ECE0" fill-opacity=".33"/><path fill-rule="evenodd" clip-rule="evenodd" d="M148.074 339.803c-.107 1.056-.295 2.542-.709 4.701l-1.495-.535c.404-2.107.585-3.542.687-4.55.035-.338.059-.621.082-.874.012-.132.022-.256.034-.376a7.57 7.57 0 0 1 .123-.903l1.486.581a5.89 5.89 0 0 0-.091.692l-.031.347c-.023.261-.05.569-.086.917Z" fill="#E9ECE0" fill-opacity=".33"/><path fill-rule="evenodd" clip-rule="evenodd" d="M133.311 353.506c1.192.816-.221-20.048 20.85-14.334l-20.85 14.334Z" fill="#E9ECE0" fill-opacity=".33"/><path fill-rule="evenodd" clip-rule="evenodd" d="M133.759 354.31c-.258.12-.542.067-.773-.09l.644-1.373a.573.573 0 0 0-.563-.062.47.47 0 0 0-.148.108c-.025.028-.037.05-.04.055-.004.006.008-.013.029-.079.02-.061.043-.145.07-.254.065-.268.129-.599.208-1.007.06-.306.127-.655.21-1.053.371-1.781.984-4.228 2.255-6.528 1.275-2.31 3.214-4.476 6.225-5.681 3.007-1.202 7.021-1.421 12.399.037l-.177 1.591c-5.172-1.402-8.893-1.155-11.593-.076-2.695 1.079-4.433 3.012-5.59 5.108-1.163 2.106-1.738 4.372-2.097 6.099-.07.335-.134.663-.193.968-.088.45-.166.849-.237 1.144-.059.24-.135.517-.252.723a.87.87 0 0 1-.377.37ZM103.259 368.239c-.113.516 22.624-3.683 31.06-13.028l-31.06 13.028Z" fill="#E9ECE0" fill-opacity=".33"/><path fill-rule="evenodd" clip-rule="evenodd" d="M102.335 368.821a1.432 1.432 0 0 1-.152-.983l2.135.849a1.396 1.396 0 0 0-.149-.96 1.35 1.35 0 0 0-.466-.502c-.184-.114-.34-.139-.358-.142h-.001a.443.443 0 0 0-.058-.008 6.522 6.522 0 0 0 .664-.062c.598-.08 1.486-.233 2.597-.464a87.49 87.49 0 0 0 8.611-2.288c6.715-2.15 14.296-5.478 18.331-9.948l1.634 1.848c-4.399 4.873-12.402 8.316-19.135 10.472a89.218 89.218 0 0 1-8.797 2.336 40.867 40.867 0 0 1-2.728.487 8.392 8.392 0 0 1-.816.077 1.892 1.892 0 0 1-.379-.021h-.002c-.051-.009-.239-.041-.445-.17a1.392 1.392 0 0 1-.486-.521Z" fill="#E9ECE0" fill-opacity=".33"/><path fill-rule="evenodd" clip-rule="evenodd" d="M103.259 368.239c-.113.516 22.624-3.683 31.06-13.028l-31.06 13.028Z" fill="#E9ECE0" fill-opacity=".33"/><path fill-rule="evenodd" clip-rule="evenodd" d="M102.335 368.821a1.432 1.432 0 0 1-.152-.983l2.135.849a1.396 1.396 0 0 0-.149-.96 1.35 1.35 0 0 0-.466-.502c-.184-.114-.34-.139-.358-.142h-.001a.443.443 0 0 0-.058-.008 6.522 6.522 0 0 0 .664-.062c.598-.08 1.486-.233 2.597-.464a87.49 87.49 0 0 0 8.611-2.288c6.715-2.15 14.296-5.478 18.331-9.948l1.634 1.848c-4.399 4.873-12.402 8.316-19.135 10.472a89.218 89.218 0 0 1-8.797 2.336 40.867 40.867 0 0 1-2.728.487 8.392 8.392 0 0 1-.816.077 1.892 1.892 0 0 1-.379-.021h-.002c-.051-.009-.239-.041-.445-.17a1.392 1.392 0 0 1-.486-.521ZM71.992 396.442c-.118.516 12.839-1.434 25.707-2.997l-25.707 2.997Z" fill="#E9ECE0" fill-opacity=".33"/><path fill-rule="evenodd" clip-rule="evenodd" d="M71.13 397.158a1.444 1.444 0 0 1-.202-1.095l2.094.793c.077-.34.014-.73-.194-1.05a1.19 1.19 0 0 0-.435-.407.864.864 0 0 0-.236-.086l.065.004c.047.002.11.002.19.001.33-.007.848-.044 1.545-.111 1.386-.133 3.386-.377 5.807-.687 1.607-.206 3.397-.441 5.307-.693 3.832-.503 8.149-1.071 12.451-1.594l.402 2.439c-4.294.522-8.593 1.087-12.419 1.59-1.914.252-3.709.488-5.327.695-2.42.311-4.447.557-5.864.694-.705.068-1.282.111-1.69.119-.192.003-.399.001-.576-.026a1.337 1.337 0 0 1-.438-.14 1.305 1.305 0 0 1-.48-.446ZM99.984 345.911c-.382.079-4.315 1.599-1.677 8.28l1.677-8.28Z" fill="#E9ECE0" fill-opacity=".33"/><path fill-rule="evenodd" clip-rule="evenodd" d="M97.475 347.156c.796-1.404 2.018-1.88 2.329-1.945l.33 1.436-.002.001c-.012.004-.072.022-.17.066-.11.05-.254.126-.413.234a3.2 3.2 0 0 0-.976 1.067c-.554.977-.91 2.751.325 5.909l-1.17.498c-1.366-3.495-1.083-5.804-.253-7.266ZM96.053 346.113c0-.307-.424-3.627-4.734-3.191l4.734 3.191Z" fill="#E9ECE0" fill-opacity=".33"/><path fill-rule="evenodd" clip-rule="evenodd" d="M96.115 345.362c.113.368.145.661.145.769l-.407-.037c0-.046-.021-.285-.122-.614a3.392 3.392 0 0 0-.573-1.103c-.588-.743-1.698-1.451-3.805-1.237l-.07-.457c2.207-.224 3.466.515 4.169 1.405.347.438.548.901.663 1.274ZM79.946 355.052c.499-.435 4.666-6.676-3.34-15.073l3.34 15.073Z" fill="#E9ECE0" fill-opacity=".33"/><path fill-rule="evenodd" clip-rule="evenodd" d="M80.602 354.904c-.151.237-.295.421-.4.512l-.523-.754.006-.006.018-.019.059-.071c.047-.06.106-.143.173-.248.134-.209.295-.501.453-.868a8.454 8.454 0 0 0 .666-3.017c.097-2.494-.79-6.014-4.71-10.127l.519-.66c4.078 4.278 5.11 8.073 5 10.903a9.434 9.434 0 0 1-.743 3.365c-.177.41-.36.743-.518.99ZM99.973 345.836c-.403.08-.257 1.232-1.758 8.356l1.758-8.356Z" fill="#E9ECE0" fill-opacity=".33"/><path fill-rule="evenodd" clip-rule="evenodd" d="M99.086 345.926c.07-.247.221-.694.684-.789l.338 1.446a.373.373 0 0 0 .259-.188.741.741 0 0 0-.023.069c-.05.18-.106.502-.206 1.11l-.041.248c-.199 1.217-.53 3.238-1.205 6.553l-1.283-.436c.67-3.286.997-5.285 1.195-6.494l.04-.248c.094-.572.165-.993.242-1.271Zm1.285.46-.004.009c.002-.007.003-.01.004-.009ZM96.034 346.113c0-.303-.696-.462-4.717-3.142l4.717 3.142Z" fill="#E9ECE0" fill-opacity=".33"/><path fill-rule="evenodd" clip-rule="evenodd" d="M95.973 345.692c.133.104.268.238.268.444l-.406-.037c0 .017.005.029.007.034a.492.492 0 0 0-.082-.076 8.804 8.804 0 0 0-.66-.426l-.143-.087c-.697-.427-1.853-1.135-3.735-2.396l.187-.384c1.874 1.256 3.025 1.96 3.72 2.386l.144.087c.334.205.56.345.7.455Zm-.129.444-.002-.003.002.003ZM79.946 355.077c.501-.436-.423-2.131-2.846-14.473l2.846 14.473Z" fill="#E9ECE0" fill-opacity=".33"/><path fill-rule="evenodd" clip-rule="evenodd" d="M80.45 354.322c.055.425.057.853-.247 1.118l-.525-.755a.066.066 0 0 0-.017.021 1.16 1.16 0 0 0-.014-.321c-.05-.379-.186-.985-.423-2.006l-.1-.425a294.232 294.232 0 0 1-2.417-11.275l.792-.131c1.125 5.739 1.925 9.166 2.409 11.237l.1.425c.232.997.383 1.666.442 2.112Zm-.792.395c0-.001 0-.005.003-.011-.001.008-.003.011-.003.011Z" fill="#E9ECE0" fill-opacity=".33"/><path fill-rule="evenodd" clip-rule="evenodd" d="M79.479 352.2c-2.43-2.19-3.348-2.786-3.824-3.23l3.824 3.23Z" fill="#E9ECE0" fill-opacity=".33"/><path fill-rule="evenodd" clip-rule="evenodd" d="M77.043 349.567c.601.489 1.448 1.2 2.674 2.314l-.46.679a62.308 62.308 0 0 0-2.637-2.281l-.494-.397c-.31-.248-.542-.433-.715-.596l.472-.669c.146.137.334.287.619.515.15.12.328.262.54.435ZM78.793 349.159c-2.082-1.864-2.883-2.35-3.29-2.729l3.29 2.729Z" fill="#E9ECE0" fill-opacity=".33"/><path fill-rule="evenodd" clip-rule="evenodd" d="M76.714 346.888c.52.413 1.252 1.015 2.304 1.966l-.436.648a44.96 44.96 0 0 0-2.682-2.26c-.271-.211-.477-.37-.629-.513l.45-.636c.12.114.277.236.52.425.13.101.285.221.473.37ZM78.304 345.944c-1.513-1.331-2.123-1.639-2.416-1.912l2.416 1.912Z" fill="#E9ECE0" fill-opacity=".33"/><path fill-rule="evenodd" clip-rule="evenodd" d="M76.81 344.26c.388.289.931.713 1.702 1.399l-.402.608a23.535 23.535 0 0 0-1.648-1.355c-.124-.092-.229-.167-.323-.235l-.14-.101a3.453 3.453 0 0 1-.328-.263l.418-.592c.054.05.13.109.253.199l.129.093c.096.07.21.152.338.247ZM99.862 345.828c-.382.079 3.554 4.789-1.675 8.277l1.675-8.277Z" fill="#E9ECE0" fill-opacity=".33"/><path fill-rule="evenodd" clip-rule="evenodd" d="M99.24 345.557a.626.626 0 0 1 .46-.427l.329 1.435a.566.566 0 0 0 .413-.386c.057-.166.034-.308.029-.34a.5.5 0 0 0-.016-.069l.016.042c.031.072.067.149.115.252.041.085.09.189.151.323.241.528.565 1.308.722 2.224.16.925.15 1.992-.278 3.075-.426 1.079-1.245 2.114-2.61 3.032l-.719-1.27c1.213-.817 1.843-1.669 2.151-2.447.306-.775.316-1.535.198-2.225-.121-.7-.374-1.323-.594-1.804l-.116-.251a11.75 11.75 0 0 1-.17-.37 1.63 1.63 0 0 1-.111-.36.9.9 0 0 1 .03-.434ZM96.032 346.17c0-.307-3.296 1.575-4.737-3.198l4.737 3.198Z" fill="#E9ECE0" fill-opacity=".33"/><path fill-rule="evenodd" clip-rule="evenodd" d="M96.141 345.977a.29.29 0 0 1 .095.217l-.407-.038c0 .059.024.126.076.172.037.034.071.04.075.041h.002s-.014 0-.053.005c-.051.007-.111.019-.186.033l-.201.038c-.339.06-.82.121-1.353.034a3.064 3.064 0 0 1-1.675-.866c-.55-.538-1.046-1.36-1.416-2.589l.385-.115c.35 1.165.808 1.902 1.283 2.367.474.464.98.67 1.45.747.472.078.906.024 1.23-.033l.18-.034a4.16 4.16 0 0 1 .221-.039.518.518 0 0 1 .163-.003c.027.004.08.017.131.063ZM79.952 355.077c.499-.435-8.376-4.353-3.074-14.121l3.074 14.121Z" fill="#E9ECE0" fill-opacity=".33"/><path fill-rule="evenodd" clip-rule="evenodd" d="M80.368 355.003a.51.51 0 0 1-.16.441l-.523-.753a.4.4 0 0 0-.12.34.434.434 0 0 0 .055.173l-.001-.001c-.007-.007-.037-.042-.114-.112-.1-.092-.225-.196-.379-.324-.12-.1-.259-.215-.417-.351-.69-.59-1.624-1.459-2.407-2.643-.787-1.189-1.423-2.699-1.507-4.56-.083-1.857.386-4.016 1.737-6.507l.697.533c-1.293 2.384-1.7 4.37-1.627 6.002.073 1.629.627 2.951 1.33 4.013.706 1.067 1.56 1.867 2.226 2.437.13.112.26.22.38.321.173.143.327.271.437.372.092.083.2.189.276.302a.703.703 0 0 1 .117.317ZM99.914 343.4c.715.314 11.801 1.406 10.16-10.959L99.914 343.4Z" fill="#E9ECE0" fill-opacity=".33"/><path fill-rule="evenodd" clip-rule="evenodd" d="M100.087 344.286a1.917 1.917 0 0 1-.404-.112l.426-1.572-.018-.008s.033.01.114.025c.097.018.232.037.402.054.338.032.794.052 1.321.03 1.06-.045 2.374-.255 3.606-.827 1.227-.569 2.349-1.487 3.078-2.938.727-1.447 1.103-3.503.712-6.447l1.458-.119c.43 3.237.035 5.68-.877 7.496-.91 1.811-2.295 2.919-3.723 3.582-1.424.661-2.911.892-4.08.941-.586.025-1.101.004-1.499-.035a5.815 5.815 0 0 1-.516-.07ZM99.54 344.545c.144.511 5.067 7.541 13 3.627l-13-3.627Z" fill="#E9ECE0" fill-opacity=".33"/><path fill-rule="evenodd" clip-rule="evenodd" d="M99.372 344.867a1.207 1.207 0 0 1-.12-.257l.56-.149-.001-.007s.011.026.047.087c.04.068.098.16.176.271.155.222.381.513.675.839.588.652 1.44 1.437 2.528 2.086 2.165 1.293 5.287 2.064 9.172.141l.275.604c-4.057 2.008-7.371 1.214-9.691-.171a11.81 11.81 0 0 1-2.682-2.213 9.612 9.612 0 0 1-.73-.909 4.613 4.613 0 0 1-.21-.322Z" fill="#E9ECE0" fill-opacity=".33"/><path fill-rule="evenodd" clip-rule="evenodd" d="M96.863 346.915c.47-.158 6.53-5.859 1.633-15.545l-1.633 15.545Z" fill="#E9ECE0" fill-opacity=".33"/><path fill-rule="evenodd" clip-rule="evenodd" d="M97.418 347.427c-.067.052-.186.14-.314.183l-.472-1.441c-.04.013-.063.027-.063.027l.045-.032c.048-.037.119-.097.207-.181.177-.167.41-.417.67-.747a10.396 10.396 0 0 0 1.569-2.866c.884-2.456 1.178-6.049-1.14-10.659l1.14-.659c2.541 5.054 2.258 9.136 1.234 11.979a11.776 11.776 0 0 1-1.78 3.251c-.296.376-.57.672-.793.884a3.92 3.92 0 0 1-.303.261Z" fill="#E9ECE0" fill-opacity=".33"/><path fill-rule="evenodd" clip-rule="evenodd" d="M99.913 343.434c.719.315 1.5-1.622 10.2-10.989l-10.2 10.989Z" fill="#E9ECE0" fill-opacity=".33"/><path fill-rule="evenodd" clip-rule="evenodd" d="M101.066 343.838c-.325.297-.789.635-1.377.377l.428-1.576a.275.275 0 0 0-.212-.015c.016-.008.071-.042.18-.142.271-.247.674-.711 1.372-1.533l.289-.341c1.411-1.663 3.753-4.424 7.82-8.804l1.06 1.277c-4.046 4.357-6.372 7.099-7.778 8.758l-.289.34c-.673.793-1.143 1.339-1.493 1.659Zm-1.165-1.212.005-.002a.014.014 0 0 0-.005.002ZM99.608 344.511c.144.495 1.906.514 12.932 3.509l-12.932-3.509Z" fill="#E9ECE0" fill-opacity=".33"/><path fill-rule="evenodd" clip-rule="evenodd" d="M99.61 344.935a.662.662 0 0 1-.29-.372l.557-.146c-.008-.03-.022-.044-.022-.044s.005.006.022.017c.05.032.144.076.317.134.344.115.909.256 1.834.48l.387.094c1.892.458 5.028 1.217 10.185 2.632l-.098.621a316.281 316.281 0 0 0-10.168-2.627l-.387-.094c-.915-.222-1.508-.369-1.881-.494a2.038 2.038 0 0 1-.457-.201ZM96.905 347.001c.482-.159.243-2.304 1.666-15.631l-1.666 15.631Z" fill="#E9ECE0" fill-opacity=".33"/><path fill-rule="evenodd" clip-rule="evenodd" d="M97.676 347.168c-.085.202-.24.434-.522.529l-.48-1.447a.382.382 0 0 0-.224.189l.006-.018a2.817 2.817 0 0 0 .055-.268c.06-.393.117-1.053.206-2.174l.037-.466c.18-2.277.478-6.055 1.134-12.26l1.335.297c-.653 6.184-.95 9.945-1.13 12.218l-.037.466c-.087 1.093-.148 1.827-.22 2.293-.036.23-.082.455-.16.641ZM99.913 343.434c9.157-3.912 7.04-4.341 10.2-10.989l-10.2 10.989Z" fill="#E9ECE0" fill-opacity=".33"/><path fill-rule="evenodd" clip-rule="evenodd" d="M107.834 339.528c-1.138 1.609-3.074 2.751-7.609 4.691l-.614-1.591c4.595-1.964 6.169-2.988 7.046-4.228.439-.621.724-1.326 1.115-2.366l.102-.273c.368-.984.824-2.206 1.56-3.754l1.31.899c-.704 1.483-1.139 2.646-1.506 3.628l-.102.272c-.386 1.029-.734 1.918-1.302 2.722Z" fill="#E9ECE0" fill-opacity=".33"/><path fill-rule="evenodd" clip-rule="evenodd" d="M99.913 343.434c4.342-3.39.909-8.793 10.2-10.989l-10.2 10.989Z" fill="#E9ECE0" fill-opacity=".33"/><path fill-rule="evenodd" clip-rule="evenodd" d="M103.367 339.229c-.537 1.616-1.157 3.483-2.991 4.915l-.9-1.423c1.464-1.144 1.9-2.444 2.411-3.967.178-.529.364-1.085.605-1.671.458-1.108 1.098-2.207 2.261-3.167 1.151-.95 2.775-1.731 5.155-2.294l.411 1.66c-2.26.534-3.687 1.25-4.638 2.035-.94.776-1.454 1.65-1.841 2.589-.169.409-.317.856-.473 1.323Z" fill="#E9ECE0" fill-opacity=".33"/><path fill-rule="evenodd" clip-rule="evenodd" d="M99.92 343.434c.717.315-.174-14.226 10.193-10.985l-10.194 10.985Z" fill="#E9ECE0" fill-opacity=".33"/><path fill-rule="evenodd" clip-rule="evenodd" d="M100.489 344.118a.694.694 0 0 1-.77.125l.428-1.576a.587.587 0 0 0-.746.225.354.354 0 0 0-.026.053l-.001.002.015-.055c.01-.045.023-.106.037-.185.04-.226.08-.517.13-.881l.084-.612c.181-1.282.472-3.045 1.085-4.729.614-1.683 1.574-3.353 3.133-4.368 1.577-1.027 3.67-1.322 6.412-.465l-.279 1.632c-2.442-.763-4.127-.456-5.323.322-1.213.79-2.019 2.129-2.569 3.637-.549 1.507-.819 3.118-.997 4.374l-.075.547c-.054.393-.102.747-.149 1.011-.033.184-.078.4-.148.577a1.01 1.01 0 0 1-.241.366Z" fill="#E9ECE0" fill-opacity=".33"/><path fill-rule="evenodd" clip-rule="evenodd" d="M99.612 344.346c.145.511 9.986-3.447 13.001 3.626l-13-3.626Z" fill="#E9ECE0" fill-opacity=".33"/><path fill-rule="evenodd" clip-rule="evenodd" d="M99.582 344.689a.397.397 0 0 1-.258-.274l.56-.15a.29.29 0 0 0-.189-.208l.025.001c.057.001.154-.009.297-.032.191-.03.434-.078.726-.135l.459-.089c.995-.19 2.352-.421 3.805-.442 2.884-.042 6.282.746 7.878 4.506l-.529.241c-1.422-3.351-4.459-4.13-7.293-4.089-1.406.02-2.728.244-3.716.432l-.444.087c-.298.058-.557.109-.757.141a2.49 2.49 0 0 1-.383.038.6.6 0 0 1-.18-.027ZM96.992 347.003c.47-.158-4.739-12.142 1.632-15.542l-1.632 15.542Z" fill="#E9ECE0" fill-opacity=".33"/><path fill-rule="evenodd" clip-rule="evenodd" d="M97.67 347.116c-.017.109-.095.467-.446.585l-.47-1.441c-.323.109-.382.433-.39.488a.517.517 0 0 0-.006.102 2.93 2.93 0 0 0-.062-.3c-.054-.224-.131-.506-.225-.854l-.153-.564c-.322-1.205-.739-2.865-.968-4.64-.45-3.494-.209-7.789 3.336-9.692l.644 1.366c-2.77 1.487-3.105 4.862-2.67 8.229.213 1.657.605 3.226.923 4.412l.141.524c.1.365.187.687.247.936.043.177.083.362.1.519.008.072.018.196-.002.33Zm-1.312-.259v-.007.007ZM71.993 396.497c-.124.543 12.815-45.66 26.384-47.309l-26.384 47.309Z" fill="#E9ECE0" fill-opacity=".33"/><path fill-rule="evenodd" clip-rule="evenodd" d="m70.936 396.115.007-.034 2.2.828.006-.029.017-.102c.009-.111-.389-1.184-1.26-1.561-.471.146-.858.576-.889.641l-.03.075-.008.025-.004.01-.001.004.005-.015.012-.041.1-.338a236.188 236.188 0 0 1 2.042-6.54c1.41-4.297 3.448-10.103 5.917-15.983 2.465-5.872 5.38-11.864 8.557-16.51 3.13-4.577 6.7-8.129 10.55-8.597l.422 2.553c-2.92.355-6.04 3.191-9.135 7.717-3.048 4.457-5.891 10.281-8.33 16.089-2.435 5.799-4.449 11.536-5.847 15.794a232.651 232.651 0 0 0-2.018 6.465l-.101.342c-.01.034-.02.069-.029.094l-.01.03-.01.03-.031.079c-.031.065-.418.495-.89.641-.871-.376-1.269-1.45-1.26-1.562l.008-.049.01-.056Z" fill="#E9ECE0" fill-opacity=".33"/><path fill-rule="evenodd" clip-rule="evenodd" d="M72.346 397.176c-.128.548 11.474-33.936 6.344-43.361l-6.344 43.361Z" fill="#E9ECE0" fill-opacity=".33"/><path fill-rule="evenodd" clip-rule="evenodd" d="M71.209 396.842c.009-.067.021-.12.024-.13l2.262.833c.002-.009.013-.057.022-.12.005-.043.012-.176.01-.266-.037-.25-.55-1.063-1.174-1.313-.395.044-.833.322-.914.419a1.104 1.104 0 0 0-.133.231l-.013.032.004-.012.076-.219c.073-.216.185-.556.33-1.006a208.597 208.597 0 0 0 4.525-16.481c1.103-4.828 2.043-9.923 2.397-14.369.177-2.223.204-4.25.043-5.98-.164-1.747-.51-3.09-1.01-4.017l1.977-1.189c.768 1.425 1.172 3.216 1.352 5.15.182 1.951.146 4.152-.039 6.471-.368 4.636-1.34 9.875-2.456 14.759a211.399 211.399 0 0 1-4.585 16.698 79.512 79.512 0 0 1-.434 1.31v.001a1.31 1.31 0 0 1-.185.361c-.082.096-.52.375-.916.419-.624-.25-1.137-1.063-1.173-1.314-.003-.09.005-.224.01-.268ZM122.641 345.202c-.126.545 9.309-32.391 2.598-44.561l-2.598 44.561Z" fill="#E9ECE0" fill-opacity=".33"/><path fill-rule="evenodd" clip-rule="evenodd" d="M121.505 344.807a.937.937 0 0 1 .014-.066l2.228.831c.001-.004.007-.027.012-.056a3.32 3.32 0 0 0 .015-.112c.006-.094-.09-.66-.329-1.074-.798-.449-1.71-.051-1.799.084a1.912 1.912 0 0 0-.09.201l-.006.018.005-.017c.011-.038.032-.108.061-.213.058-.207.147-.532.262-.962a162.396 162.396 0 0 0 3.366-16.086c.742-4.797 1.273-9.945 1.214-14.618-.059-4.718-.72-8.749-2.206-11.459l1.931-1.215c1.846 3.366 2.512 8.001 2.573 12.849.062 4.892-.493 10.208-1.246 15.082a164.816 164.816 0 0 1-3.425 16.365c-.117.44-.21.777-.272.998-.03.11-.055.194-.071.25l-.03.094a1.712 1.712 0 0 1-.093.211c-.09.136-1.002.534-1.8.085-.24-.415-.336-.981-.33-1.075.004-.038.013-.095.016-.115ZM38.293 413.854c-.122.539 6.344-4.876 14.597-17.487l-14.597 17.487Z" fill="#E9ECE0" fill-opacity=".33"/><path fill-rule="evenodd" clip-rule="evenodd" d="M37.24 414.1a1.479 1.479 0 0 1-.004-.665l2.154.821c.02-.09.064-.324-.006-.623a1.376 1.376 0 0 0-.627-.878 1 1 0 0 0-.553-.143.867.867 0 0 0-.207.035.6.6 0 0 0-.095.038l.046-.029c.128-.086.364-.269.71-.572.68-.598 1.705-1.588 2.997-2.996 2.583-2.812 6.212-7.26 10.29-13.5l1.818 1.626c-4.143 6.34-7.846 10.883-10.508 13.782-1.33 1.449-2.408 2.494-3.157 3.151-.37.324-.681.573-.914.73a1.798 1.798 0 0 1-.448.228 1.066 1.066 0 0 1-.262.047c-.1.004-.33.001-.59-.15a1.411 1.411 0 0 1-.643-.902Zm.658-1.413.004-.002-.004.002ZM161.521 230.663c-1.105-79.362-44.86-152.016-111.789-175.403C-32.572 26.5-118.75 83.132-142.753 181.75c-24.003 98.618 23.26 201.878 105.565 230.638 14.697 5.136 29.516 7.547 44.081 7.485l.008 2.568c-14.769.063-29.792-2.383-44.689-7.588-83.44-29.157-131.356-133.842-107.023-233.822C-120.477 81.051-33.109 23.638 50.332 52.795c67.856 23.71 112.212 97.37 113.332 177.825l-2.143.043Z" fill="#E9ECE0" fill-opacity=".33"/></svg>