<svg xmlns="http://www.w3.org/2000/svg" width="937" height="890" fill="none"><path fill="#E9ECE0" fill-opacity=".33" fill-rule="evenodd" d="M871.004 413.244c-8.709 233.344-129.036 360.589-247.932 433.128l-3.13-5.129c117.592-71.744 236.44-197.336 245.057-428.223l6.005.224Z" clip-rule="evenodd"/><path fill="#E9ECE0" fill-opacity=".33" fill-rule="evenodd" d="M857.031 510.43c.009 1.343 42.376-27.41 54.452-61.125l-54.452 61.125Z" clip-rule="evenodd"/><path fill="#E9ECE0" fill-opacity=".33" fill-rule="evenodd" d="M854.651 512.281a3.043 3.043 0 0 1-.623-1.828l6.009-.039a2.963 2.963 0 0 0-2.083-2.809c-.703-.218-1.277-.102-1.377-.082l-.008.002a1.996 1.996 0 0 0-.333.094l.015-.007c.154-.071.498-.256 1.06-.6 1.092-.667 2.724-1.762 4.765-3.25 4.072-2.968 9.654-7.415 15.613-12.947 11.989-11.13 25.173-26.348 30.966-42.52l5.657 2.026c-6.283 17.542-20.32 33.558-32.535 44.898-6.143 5.703-11.91 10.3-16.161 13.399-2.121 1.546-3.894 2.741-5.169 3.52-.62.38-1.199.709-1.673.928a4.73 4.73 0 0 1-1.033.353l-.004.001c-.161.032-.805.16-1.564-.076a3.05 3.05 0 0 1-1.522-1.063Zm1.558-4.651s.009-.005.027-.011l-.027.011Z" clip-rule="evenodd"/><path fill="#E9ECE0" fill-opacity=".33" fill-rule="evenodd" d="M910.498 451.885c2.155.075 25.309-2.469 20.635-36.6l-20.635 36.6Z" clip-rule="evenodd"/><path fill="#E9ECE0" fill-opacity=".33" fill-rule="evenodd" d="M915.894 452.909c-2.569.815-4.652 1.008-5.466.98l.14-4.003c.264.009 1.884-.088 4.116-.795 2.193-.696 4.876-1.951 7.358-4.17 4.86-4.345 9.377-12.784 7.107-29.362l3.969-.543c2.403 17.553-2.32 27.451-8.406 32.892-2.993 2.674-6.21 4.174-8.818 5.001ZM870.3 416.28c-.435 1.434-2.851 17.441 20.909 20.382L870.3 416.28Z" clip-rule="evenodd"/><path fill="#E9ECE0" fill-opacity=".33" fill-rule="evenodd" d="M869.53 419.681c-.086-1.794.15-3.124.279-3.55l.983.298c-.088.291-.317 1.5-.236 3.203a14.932 14.932 0 0 0 1.584 6.042c2.216 4.36 7.378 9.024 19.133 10.479l-.126 1.019c-12.005-1.486-17.515-6.296-19.922-11.033a15.967 15.967 0 0 1-1.695-6.458ZM866.284 423.638c-.94-.58-11.052-6.235-17.639 10.143l17.639-10.143Z" clip-rule="evenodd"/><path fill="#E9ECE0" fill-opacity=".33" fill-rule="evenodd" d="M859.305 420.633c4.085-.661 7.295 1.155 7.893 1.525l-1.828 2.96c-.341-.21-2.657-1.512-5.51-1.05-2.678.433-6.453 2.536-9.6 10.362l-3.229-1.298c3.44-8.552 8.015-11.811 12.274-12.499ZM910.498 451.885c2.155.075 3.03-5.397 20.635-36.6l-20.635 36.6Z" clip-rule="evenodd"/><path fill="#E9ECE0" fill-opacity=".33" fill-rule="evenodd" d="M913.823 451.696c-.689 1.034-1.7 2.249-3.394 2.19l.139-4.004a.795.795 0 0 0-.498.136c.037-.035.173-.175.42-.544.58-.87 1.381-2.397 2.749-5.072l.566-1.109c2.764-5.415 7.351-14.4 15.584-28.993l3.489 1.968c-8.193 14.522-12.75 23.45-15.506 28.848l-.566 1.109c-1.321 2.584-2.243 4.361-2.983 5.471Zm-3.764-1.669.011-.009-.011.009ZM870.3 416.28c-.435 1.434 3.086 2.997 20.909 20.382L870.3 416.28Z" clip-rule="evenodd"/><path fill="#E9ECE0" fill-opacity=".33" fill-rule="evenodd" d="M870.492 417.967c-.556-.63-.878-1.192-.684-1.834l.983.298c-.022.075-.068.246.471.856.523.592 1.452 1.442 2.989 2.823l.644.578c3.142 2.818 8.35 7.491 16.673 15.609l-.717.735c-8.308-8.103-13.504-12.765-16.642-15.58l-.644-.578c-1.518-1.363-2.501-2.26-3.073-2.907ZM866.283 423.643c-.94-.581-2.719 1.633-18.479 11.05l18.479-11.05Z" clip-rule="evenodd"/><path fill="#E9ECE0" fill-opacity=".33" fill-rule="evenodd" d="M864.438 422.242c.586-.294 1.671-.755 2.76-.082l-1.828 2.961c.382.235.722.173.809.149a2.023 2.023 0 0 0-.184.083c-.433.217-1.137.665-2.44 1.519l-.534.349c-2.608 1.71-6.941 4.551-14.324 8.963l-1.785-2.987c7.322-4.376 11.609-7.186 14.203-8.887l.534-.35c1.229-.804 2.131-1.389 2.789-1.718Zm1.762 3.021c0 .001-.007.004-.021.007l.021-.007ZM910.498 451.885c2.155.075-12.264-26.391 20.635-36.6l-20.635 36.6Z" clip-rule="evenodd"/><path fill="#E9ECE0" fill-opacity=".33" fill-rule="evenodd" d="M912.244 453.033a2.179 2.179 0 0 1-1.815.852l.14-4.003a1.832 1.832 0 0 0-1.505.714c-.287.375-.325.73-.331.784v.002l-.005.054c-.002 0-.006-.098-.048-.353a32.076 32.076 0 0 0-.295-1.439c-.099-.454-.214-.983-.342-1.613-.549-2.699-1.167-6.55-.749-10.787.42-4.265 1.891-8.935 5.509-13.217 3.611-4.273 9.239-8.019 17.737-10.656l1.187 3.826c-7.951 2.467-12.857 5.857-15.864 9.415-2.998 3.549-4.226 7.406-4.582 11.025-.36 3.645.167 7.035.688 9.596.095.471.198.947.296 1.399.15.69.287 1.323.365 1.787.062.367.139.898.086 1.394a2.427 2.427 0 0 1-.472 1.22ZM870.3 416.28c-.435 1.434 19.914-3.537 20.909 20.382L870.3 416.28Z" clip-rule="evenodd"/><path fill="#E9ECE0" fill-opacity=".33" fill-rule="evenodd" d="M869.912 416.714a.632.632 0 0 1-.104-.579l.983.298a.394.394 0 0 0-.066-.346c-.048-.062-.096-.083-.096-.083l.007.003c.052.02.185.048.444.072.293.027.656.044 1.095.063.324.015.689.031 1.098.055 1.881.111 4.475.375 7.125 1.365 2.656.993 5.372 2.715 7.484 5.736 2.109 3.018 3.588 7.294 3.84 13.347l-1.026.043c-.246-5.907-1.684-9.98-3.656-12.801-1.971-2.82-4.501-4.429-7.002-5.363-2.507-.936-4.981-1.193-6.825-1.301-.367-.022-.719-.038-1.042-.053-.468-.021-.876-.039-1.186-.068-.258-.024-.519-.06-.718-.136a.812.812 0 0 1-.355-.252ZM866.284 423.641c-.94-.58-2.614 14.871-19.85 11.059l19.85-11.059Z" clip-rule="evenodd"/><path fill="#E9ECE0" fill-opacity=".33" fill-rule="evenodd" d="M865.566 422.008a1.835 1.835 0 0 1 1.633.151l-1.829 2.96c.437.27.978.318 1.452.134.363-.14.557-.367.601-.419.051-.059.077-.103.077-.102 0 0-.019.032-.057.113-.088.186-.177.403-.296.692-.091.22-.199.482-.337.805-.581 1.361-1.492 3.292-2.989 5.135-1.507 1.857-3.616 3.633-6.573 4.663-2.956 1.028-6.627 1.266-11.189.257l.751-3.398c4.057.897 7.058.633 9.294-.146 2.233-.777 3.833-2.112 5.016-3.569 1.194-1.471 1.955-3.056 2.49-4.309.088-.205.178-.422.266-.635.154-.372.302-.729.419-.978.086-.183.243-.505.474-.777.112-.133.371-.412.797-.577ZM795.558 727.253c2.208 1.924 41.736 19.939 53.099-20.917l-53.099 20.917Z" clip-rule="evenodd"/><path fill="#E9ECE0" fill-opacity=".33" fill-rule="evenodd" d="M795.642 729.148c-.419-.23-.832-.481-1.107-.721l2.043-2.344-.004-.004s.037.03.133.091c.104.066.248.152.434.254.372.205.879.459 1.508.745a45.105 45.105 0 0 0 5.005 1.892c4.083 1.286 9.406 2.399 14.97 2.224 5.553-.174 11.294-1.626 16.315-5.413 5.014-3.781 9.45-9.997 12.218-19.95l2.996.833c-2.913 10.474-7.679 17.328-13.341 21.6-5.656 4.265-12.066 5.85-18.091 6.038-6.014.189-11.697-1.01-16.002-2.366a48.053 48.053 0 0 1-5.356-2.027 25.5 25.5 0 0 1-1.721-.852ZM864.099 413.158c2.193-1.94 25.165-38.81-13.881-55.356l13.881 55.356Z" clip-rule="evenodd"/><path fill="#E9ECE0" fill-opacity=".33" fill-rule="evenodd" d="M865.906 413.258c-.282.385-.579.755-.843.989l-1.926-2.177c-.003.002-.003.002 0-.001.009-.009.046-.046.113-.127.082-.097.186-.23.313-.403.252-.344.572-.816.937-1.405a44.999 44.999 0 0 0 2.529-4.729c1.807-3.89 3.602-9.036 4.149-14.59.547-5.545-.153-11.447-3.273-16.938-3.115-5.483-8.724-10.699-18.253-14.737l1.134-2.676c9.994 4.235 16.156 9.833 19.646 15.977 3.487 6.136 4.228 12.675 3.638 18.659-.588 5.973-2.507 11.443-4.405 15.529a47.893 47.893 0 0 1-2.696 5.039 25.194 25.194 0 0 1-1.063 1.59ZM866.062 415.677c1.857.457 33.009-4.781 35.487-41.044l-35.487 41.044Z" clip-rule="evenodd"/><path fill="#E9ECE0" fill-opacity=".33" fill-rule="evenodd" d="M866.862 417.526c-.321.022-.815.043-1.241-.062l.881-3.58c-.09-.022-.145-.026-.145-.027 0-.001.075.003.259-.009.257-.018.627-.06 1.102-.138a29.237 29.237 0 0 0 3.78-.918 40.466 40.466 0 0 0 11.022-5.384c7.91-5.494 15.991-15.377 17.189-32.904l3.678.252c-1.28 18.736-10.014 29.603-18.764 35.68a44.15 44.15 0 0 1-12.038 5.879c-1.685.52-3.145.848-4.268 1.033-.559.092-1.051.151-1.455.178Z" clip-rule="evenodd"/><path fill="#E9ECE0" fill-opacity=".33" fill-rule="evenodd" d="M867.199 424.124c.361-1.878-5.556-32.571-41.9-33.173l41.9 33.173Z" clip-rule="evenodd"/><path fill="#E9ECE0" fill-opacity=".33" fill-rule="evenodd" d="M867.817 423.383c.032.326.045.64.004.857l-1.244-.238v-.001a.96.96 0 0 0 .003-.129 4.31 4.31 0 0 0-.023-.364 13.6 13.6 0 0 0-.186-1.206 30.071 30.071 0 0 0-1.056-3.868 40.083 40.083 0 0 0-5.809-10.999c-5.868-7.837-16.255-15.557-34.218-15.854l.021-1.266c18.38.304 29.124 8.232 35.211 16.361a41.373 41.373 0 0 1 5.994 11.35 31.309 31.309 0 0 1 1.1 4.034c.102.525.168.971.203 1.323ZM814.855 504.33c-2.861-.625-40.892-21.617-14.868-55.099l14.868 55.099Z" clip-rule="evenodd"/><path fill="#E9ECE0" fill-opacity=".33" fill-rule="evenodd" d="M815.258 502.435c.02.007.023.009.012.006l-.826 3.779c-.399-.087-.879-.285-1.315-.484a25.898 25.898 0 0 1-1.737-.887 48.502 48.502 0 0 1-4.859-3.116c-3.678-2.664-8.064-6.54-11.53-11.526-3.474-4.997-6.06-11.163-6.006-18.343.053-7.192 2.752-15.183 9.465-23.819l3.054 2.374c-6.299 8.105-8.605 15.293-8.651 21.474-.046 6.192 2.175 11.591 5.314 16.105 3.146 4.526 7.178 8.107 10.623 10.602a44.582 44.582 0 0 0 4.464 2.865c.598.331 1.096.581 1.471.753.306.14.47.199.521.217ZM795.558 727.253c2.208 1.924 7.817-3.096 53.099-20.917l-53.099 20.917Z" clip-rule="evenodd"/><path fill="#E9ECE0" fill-opacity=".33" fill-rule="evenodd" d="M798.879 728.788c-1.583.491-3.114.708-4.342-.362l2.042-2.344a.062.062 0 0 0-.016-.007l-.003-.001c-.001-.001.026.008.098.01.198.005.583-.044 1.3-.266 1.437-.445 3.663-1.404 7.368-3.041l1.546-.683c7.545-3.339 20.059-8.878 41.215-17.204l1.139 2.894c-21.097 8.302-33.565 13.821-41.097 17.154l-1.546.684c-3.633 1.605-6.054 2.655-7.704 3.166ZM864.099 413.159c2.194-1.941-2.059-8.152-13.881-55.356l13.881 55.356Z" clip-rule="evenodd"/><path fill="#E9ECE0" fill-opacity=".33" fill-rule="evenodd" d="M865.95 410.08c.282 1.63.289 3.124-.888 4.165l-1.926-2.177.011-.01.003-.002v-.001m2.8-1.975c-.292-1.696-1.019-4.226-2.142-8.038l2.142 8.038Zm-2.142-8.038-.478-1.623.478 1.623Zm-.478-1.623c-2.333-7.9-6.194-20.978-11.702-42.971l11.702 42.971Zm-11.702-42.971-2.819.706 2.819-.706Zm-2.819.706c5.522 22.051 9.396 35.173 11.733 43.086l-11.733-43.086Zm11.733 43.086.479 1.623-.479-1.623Zm.479 1.623c1.143 3.884 1.808 6.221 2.065 7.711l-2.065-7.711Zm2.065 7.711c.129.744.13 1.144.096 1.357l-.096-1.357Zm.096 1.357c-.014.092-.032.124-.032.124l.032-.124Zm-.032.124ZM676.161 773.428c2.556-.776 2.013-10.813 13.751-73.362l-13.751 73.362Z" clip-rule="evenodd"/><path fill="#E9ECE0" fill-opacity=".33" fill-rule="evenodd" d="M678.73 773.544c-.397.739-1.012 1.457-2 1.757l-1.137-3.746c-.25.076-.358.218-.359.217 0 0 .016-.022.046-.08.131-.243.319-.744.556-1.72.469-1.932.994-5.119 1.825-10.367l.347-2.198c1.693-10.721 4.5-28.494 9.981-57.702l3.848.722c-5.471 29.153-8.271 46.884-9.962 57.592l-.347 2.198c-.82 5.177-1.372 8.554-1.888 10.678-.255 1.051-.535 1.95-.91 2.649ZM866.062 415.677c1.857.457 5.194-5.921 35.294-40.13l-35.294 40.13Z" clip-rule="evenodd"/><path fill="#E9ECE0" fill-opacity=".33" fill-rule="evenodd" d="M867.829 417.063c-.573.345-1.336.615-2.207.401l.881-3.58c-.354-.087-.591.031-.592.03l.016-.009c.119-.072.386-.278.883-.786.979-1.002 2.454-2.755 4.891-5.688l1.017-1.225c4.963-5.981 13.194-15.899 27.255-31.879l2.768 2.435c-14.026 15.941-22.231 25.827-27.187 31.799l-1.017 1.226c-2.393 2.881-3.982 4.774-5.091 5.909-.547.56-1.081 1.044-1.617 1.367ZM867.198 424.124c.361-1.878-6.18-4.88-41.9-33.173l41.9 33.173Z" clip-rule="evenodd"/><path fill="#E9ECE0" fill-opacity=".33" fill-rule="evenodd" d="M867.491 422.968c.269.398.417.821.329 1.278l-1.244-.239v-.001c.004-.016.021-.1-.134-.33-.168-.247-.483-.586-1.034-1.072-1.097-.966-2.972-2.384-6.009-4.652l-1.276-.952c-6.226-4.645-16.546-12.345-33.218-25.55l.786-.993c16.658 13.194 26.967 20.885 33.19 25.528l1.276.953c3.018 2.254 4.943 3.707 6.088 4.716.57.502.985.927 1.246 1.314ZM814.855 504.33c-2.861-.625-2.175-8.121-14.868-55.099l14.868 55.099Z" clip-rule="evenodd"/><path fill="#E9ECE0" fill-opacity=".33" fill-rule="evenodd" d="M815.434 502.514a.411.411 0 0 0-.167-.073l-.825 3.779c-1.807-.394-2.604-1.942-3.158-3.514-.582-1.656-1.188-4.251-2.063-8.115l-.373-1.65c-1.815-8.032-4.817-21.326-10.729-43.205l3.735-1.009c5.932 21.956 8.948 35.31 10.767 43.36l.372 1.649c.898 3.96 1.45 6.292 1.941 7.686.257.732.434 1.009.5 1.092Zm.03.03c0 .002-.01-.006-.03-.03.021.016.03.028.03.03ZM795.558 727.253c39.293-.198 32.082-4.315 53.099-20.917l-53.099 20.917Z" clip-rule="evenodd"/><path fill="#E9ECE0" fill-opacity=".33" fill-rule="evenodd" d="M829.704 724.313c-6.136 3.348-14.561 4.398-34.139 4.496l-.016-3.109c19.715-.099 27.33-1.206 32.666-4.117 2.671-1.456 4.835-3.401 7.737-6.132l.763-.719c2.748-2.594 6.12-5.777 10.977-9.614l1.927 2.44c-4.746 3.749-8.029 6.848-10.773 9.438l-.762.719c-2.885 2.715-5.314 4.926-8.38 6.598ZM864.099 413.156c4.881-38.989-.133-32.37-13.881-55.356l13.881 55.356Z" clip-rule="evenodd"/><path fill="#E9ECE0" fill-opacity=".33" fill-rule="evenodd" d="M865.5 378.953c2.516 6.489 2.475 14.954.042 34.385l-2.884-.361c2.449-19.558 2.341-27.279.133-32.974-1.105-2.85-2.761-5.257-5.094-8.487l-.615-.849c-2.217-3.06-4.935-6.812-8.11-12.12l2.494-1.492c3.107 5.195 5.759 8.855 7.972 11.91l.614.849c2.321 3.212 4.192 5.896 5.448 9.139ZM676.16 773.428c21.028-41.849 14.22-37.549 13.752-73.361l-13.752 73.361Z" clip-rule="evenodd"/><path fill="#E9ECE0" fill-opacity=".33" fill-rule="evenodd" d="M693.046 734.678c-.909 9.039-4.634 18.728-15.135 39.628l-3.498-1.758c10.526-20.95 13.911-30.036 14.738-38.262.415-4.128.192-8.1-.185-13.396l-.099-1.394c-.362-5.026-.804-11.165-.911-19.406l3.914-.051c.106 8.122.541 14.159.902 19.18l.099 1.393c.375 5.277.628 9.561.175 14.066ZM814.855 504.33c-23.269-31.661-15.665-28.327-14.868-55.099l14.868 55.099Z" clip-rule="evenodd"/><path fill="#E9ECE0" fill-opacity=".33" fill-rule="evenodd" d="M800.312 474.676c.829 5.91 4.417 12.608 16.102 28.507l-3.117 2.291c-11.584-15.762-15.829-23.228-16.816-30.26-.493-3.513-.16-6.826.3-10.758l.122-1.04c.443-3.746.972-8.216 1.151-14.244l3.867.115c-.185 6.204-.731 10.824-1.175 14.577l-.123 1.041c-.463 3.962-.726 6.813-.311 9.771ZM795.558 727.256c20.791-4.884 15.721-26.255 53.098-20.916l-53.098 20.916Z" clip-rule="evenodd"/><path fill="#E9ECE0" fill-opacity=".33" fill-rule="evenodd" d="M813.087 717.846c-4.229 4.305-8.797 8.954-17.172 10.921l-.712-3.027c7.423-1.743 11.195-5.571 15.303-9.739 1.366-1.386 2.769-2.809 4.355-4.206 3.135-2.76 6.866-5.228 12.264-6.633 5.366-1.397 12.278-1.717 21.752-.364l-.439 3.078c-9.214-1.316-15.685-.966-20.53.295-4.814 1.253-8.124 3.432-10.992 5.958-1.309 1.152-2.554 2.419-3.829 3.717ZM864.099 413.155c-2.157-21.248-24.004-18.981-13.881-55.356l13.881 55.356Z" clip-rule="evenodd"/><path fill="#E9ECE0" fill-opacity=".33" fill-rule="evenodd" d="M856.966 394.636c3.719 4.747 7.715 9.847 8.58 18.374l-2.891.294c-.773-7.617-4.104-11.881-7.711-16.498-1.195-1.531-2.421-3.1-3.594-4.843-2.326-3.456-4.284-7.46-4.977-12.974-.69-5.484-.117-12.365 2.447-21.578l2.8.78c-2.498 8.975-2.99 15.451-2.364 20.436.624 4.955 2.365 8.533 4.505 11.713.98 1.457 2.08 2.86 3.205 4.296ZM676.161 773.428c7.732-26.034-10.176-38.05 13.751-73.362l-13.751 73.362Z" clip-rule="evenodd"/><path fill="#E9ECE0" fill-opacity=".33" fill-rule="evenodd" d="M679.508 747.382c.774 7.958 1.587 16.314-1.469 26.602l-3.753-1.115c2.819-9.49 2.106-16.873 1.353-24.676-.246-2.55-.496-5.145-.629-7.874-.54-11.089 1.078-23.341 13.283-41.353l3.241 2.196c-11.722 17.3-13.113 28.712-12.614 38.967.118 2.41.351 4.813.588 7.253ZM814.855 504.33c-8.476-19.603 11.704-28.275-14.868-55.099l14.868 55.099Z" clip-rule="evenodd"/><path fill="#E9ECE0" fill-opacity=".33" fill-rule="evenodd" d="M815.347 485.743c-.892 5.753-1.694 10.93 1.285 17.82l-3.551 1.535c-3.462-8.008-2.429-14.588-1.491-20.565.279-1.781.55-3.509.691-5.205.314-3.765.093-7.659-1.744-12.203-1.852-4.58-5.395-9.943-11.922-16.532l2.748-2.722c6.758 6.822 10.658 12.602 12.76 17.805 2.118 5.239 2.364 9.768 2.013 13.973-.179 2.155-.489 4.157-.789 6.094ZM795.558 727.253c2.207 1.924 19.381-44.646 53.098-20.917l-53.098 20.917Z" clip-rule="evenodd"/><path fill="#E9ECE0" fill-opacity=".33" fill-rule="evenodd" d="M796.276 728.78a1.798 1.798 0 0 1-1.74-.353l2.043-2.344a1.315 1.315 0 0 0-1.238-.269.864.864 0 0 0-.244.116l.01-.009c.119-.107.349-.375.719-.891.484-.676 1.066-1.574 1.776-2.668.349-.538.729-1.124 1.143-1.754 2.461-3.746 5.946-8.766 10.469-13.109 4.521-4.343 10.176-8.102 16.991-9.169 6.859-1.072 14.654.62 23.346 6.737l-1.79 2.543c-8.167-5.748-15.162-7.132-21.075-6.207-5.958.932-11.056 4.245-15.318 8.338-4.261 4.092-7.591 8.871-10.025 12.574-.376.574-.736 1.129-1.077 1.654-.738 1.138-1.385 2.136-1.912 2.872-.377.526-.775 1.039-1.167 1.392-.186.166-.497.416-.911.547Zm-1.192-2.84.013-.01-.013.01ZM864.097 413.156c2.194-1.941-41.767-24.987-13.881-55.356l13.881 55.356Z" clip-rule="evenodd"/><path fill="#E9ECE0" fill-opacity=".33" fill-rule="evenodd" d="M865.605 412.658a1.698 1.698 0 0 1-.542 1.585l-1.926-2.176c-.38.336-.447.801-.394 1.099a.81.81 0 0 0 .071.223.275.275 0 0 1-.012-.018c-.097-.141-.34-.41-.804-.844-.61-.569-1.429-1.265-2.423-2.111-.488-.416-1.019-.867-1.588-1.357-3.395-2.924-7.916-7.022-11.632-12.059-3.714-5.035-6.7-11.109-6.876-17.975-.177-6.909 2.495-14.396 9.67-22.209l2.14 1.966c-6.768 7.371-9.059 14.154-8.904 20.168.155 6.056 2.794 11.56 6.309 16.325 3.514 4.763 7.83 8.689 11.189 11.581.521.449 1.026.879 1.503 1.285 1.032.877 1.935 1.645 2.595 2.262.473.441.923.896 1.215 1.32.139.202.337.528.409.935Zm-2.783.744-.008-.013a.142.142 0 0 1 .008.013ZM676.16 773.43c2.556-.776-18.942-58.031 16.072-74.49l-16.072 74.49Zm0 0c2.556-.776 36.487-29.733 13.594-75.044L676.16 773.43Z" clip-rule="evenodd"/><path fill="#E9ECE0" fill-opacity=".33" fill-rule="evenodd" d="M678.128 774.602c-.372.258-.888.593-1.384.743l-3.258.99.867-4.021a19.33 19.33 0 0 0-.18-1.309c-.182-1.106-.46-2.514-.796-4.213-.16-.812-.334-1.691-.516-2.635-1.114-5.759-2.491-13.622-2.837-22.01-.685-16.625 2.673-36.238 21.357-45.021l3.663-1.722-1.407 6.525c9.278 21.256 6.457 38.882.686 51.511-3.069 6.716-6.958 11.993-10.252 15.648-1.647 1.829-3.157 3.264-4.358 4.281-.6.507-1.136.921-1.585 1.233Zm11.22-71.791c-13.12 8.419-15.939 24.189-15.322 39.171.309 7.496 1.476 14.6 2.525 20.146l12.797-59.317Zm2.762 6.196c6.112 17.638 3.419 32.157-1.43 42.768-2.871 6.283-6.514 11.224-9.585 14.632a49.602 49.602 0 0 1-1.772 1.868l12.787-59.268ZM866.061 415.676c1.857.457 9.817-42.535 37.39-39.86l-37.39 39.86Z" clip-rule="evenodd"/><path fill="#E9ECE0" fill-opacity=".33" fill-rule="evenodd" d="M867.532 416.92c-.204.196-.904.793-1.913.544l.882-3.58a1.645 1.645 0 0 0-1.528.382.822.822 0 0 0-.108.121l.022-.037c.095-.164.248-.494.47-1.05.295-.74.641-1.697 1.062-2.859.201-.557.42-1.162.658-1.812 1.447-3.947 3.515-9.299 6.418-14.602 5.738-10.484 15.163-21.5 30.133-20.048l-.356 3.67c-12.602-1.223-20.944 7.92-26.543 18.149-2.767 5.054-4.76 10.197-6.19 14.099-.219.599-.428 1.176-.626 1.722-.434 1.201-.814 2.25-1.132 3.047-.228.571-.463 1.116-.702 1.529a3.29 3.29 0 0 1-.547.725Zm-2.673-2.525.006-.008-.006.008ZM867.2 424.124c.36-1.878-43.146-5.498-41.9-33.173l41.9 33.173Z" clip-rule="evenodd"/><path fill="#E9ECE0" fill-opacity=".33" fill-rule="evenodd" d="M867.525 423.464c.125.11.373.38.296.777l-1.243-.238a.489.489 0 0 0 .043.317c.032.065.068.095.069.097h.001s-.012-.009-.042-.027a1.637 1.637 0 0 0-.137-.07c-.253-.116-.662-.254-1.236-.419-.771-.223-1.77-.476-2.959-.778-.573-.146-1.189-.302-1.846-.472-4.016-1.038-9.42-2.541-14.804-4.86-10.725-4.621-21.642-12.609-21-26.871l1.265.057c-.604 13.414 9.61 21.073 20.236 25.651 5.292 2.279 10.619 3.763 14.62 4.797.638.165 1.244.319 1.812.463 1.204.306 2.237.568 3.027.796.579.167 1.067.327 1.411.484.167.076.345.172.487.296ZM814.856 504.331c-2.861-.625 24.286-42.179-14.868-55.099l14.868 55.099Z" clip-rule="evenodd"/><path fill="#E9ECE0" fill-opacity=".33" fill-rule="evenodd" d="M816.5 503.519a1.69 1.69 0 0 0-1.231-1.08l-.826 3.779c-.869-.189-1.387-.825-1.598-1.432-.169-.487-.148-.95-.123-1.218.053-.569.239-1.229.438-1.847.279-.871.7-1.999 1.175-3.276.218-.584.447-1.2.68-1.837 1.52-4.156 3.359-9.645 4.098-15.462.739-5.819.356-11.8-2.399-17.045-2.729-5.195-7.923-9.93-17.332-13.035l1.212-3.673c10.168 3.355 16.263 8.66 19.545 14.909 3.257 6.201 3.607 13.069 2.811 19.332-.796 6.265-2.76 12.089-4.302 16.303-.262.716-.507 1.374-.732 1.977-.452 1.215-.821 2.205-1.073 2.989-.191.596-.257.906-.269 1.023a1.213 1.213 0 0 0-.074-.407Zm.073.411.001-.004-.001.004ZM867.227 613.987c3.51.778 42.246 3.66 44.978-53.721l-44.978 53.721Z" clip-rule="evenodd"/><path fill="#E9ECE0" fill-opacity=".33" fill-rule="evenodd" d="M891.031 610.621c-10.99 6.675-22.095 5.763-24.229 5.29l.853-3.845c1.376.306 11.394 1.224 21.332-4.811 9.773-5.935 19.91-18.874 21.253-47.081l3.934.187c-1.389 29.174-11.987 43.485-23.143 50.26Z" clip-rule="evenodd"/><path fill="#E9ECE0" fill-opacity=".33" fill-rule="evenodd" d="M867.227 613.987c3.51.778 6.612-7.927 44.978-53.721l-44.978 53.721Z" clip-rule="evenodd"/><path fill="#E9ECE0" fill-opacity=".33" fill-rule="evenodd" d="M871.753 613.737c-1.42 1.459-2.964 2.616-4.951 2.175l.853-3.845c-.005 0-.022-.002-.043.001l-.008.002c-.001 0 .029-.007.096-.041.209-.106.589-.379 1.231-1.038 1.285-1.321 3.12-3.657 6.156-7.599l1.266-1.645c6.176-8.03 16.419-21.347 34.345-42.743l3.018 2.529c-17.873 21.334-28.078 34.602-34.243 42.617l-1.266 1.646c-2.975 3.861-4.971 6.418-6.454 7.941Z" clip-rule="evenodd"/><path fill="#E9ECE0" fill-opacity=".33" fill-rule="evenodd" d="M876.921 604.233c-.417-17.017-1.509-22.738-1.531-26.115l1.531 26.115Z" clip-rule="evenodd"/><path fill="#E9ECE0" fill-opacity=".33" fill-rule="evenodd" d="M877.97 585.9c.331 4.016.71 9.738.92 18.286l-3.938.096c-.207-8.468-.582-14.115-.907-18.058-.102-1.237-.202-2.33-.29-3.302-.188-2.057-.326-3.576-.334-4.789l3.938-.026c.007 1.044.122 2.306.296 4.212.091.997.199 2.171.315 3.581ZM885.671 592.081c-.402-14.549-1.488-19.439-1.507-22.326l1.507 22.326Z" clip-rule="evenodd"/><path fill="#E9ECE0" fill-opacity=".33" fill-rule="evenodd" d="M886.724 576.361c.329 3.443.703 8.347.905 15.668l-3.914.108c-.199-7.229-.568-12.044-.889-15.405a238.09 238.09 0 0 0-.283-2.781c-.187-1.778-.329-3.118-.336-4.182l3.916-.026c.006.867.116 1.908.286 3.512.09.855.198 1.871.315 3.106ZM895.783 580.309c-.375-10.521-1.452-14.056-1.467-16.144l1.467 16.144Z" clip-rule="evenodd"/><path fill="#E9ECE0" fill-opacity=".33" fill-rule="evenodd" d="M896.874 568.823c.325 2.517.694 6.092.883 11.417l-3.947.141c-.185-5.196-.542-8.649-.853-11.052-.104-.805-.2-1.475-.287-2.076a133.53 133.53 0 0 1-.126-.893c-.109-.788-.197-1.515-.201-2.18l3.949-.027c.003.38.055.877.164 1.668l.117.825c.089.617.194 1.349.301 2.177Z" clip-rule="evenodd"/><path fill="#E9ECE0" fill-opacity=".33" fill-rule="evenodd" d="M867.227 613.987c3.51.778-12.069-47.005 44.978-53.721l-44.978 53.721Z" clip-rule="evenodd"/><path fill="#E9ECE0" fill-opacity=".33" fill-rule="evenodd" d="M868.822 615.384a2.261 2.261 0 0 1-2.021.526l.853-3.844a1.677 1.677 0 0 0-1.469.393 1.47 1.47 0 0 0-.315.396c-.049.09-.068.153-.072.166-.005.018.012-.037.029-.212.016-.164.027-.382.032-.664.012-.693-.014-1.534-.046-2.568a182.84 182.84 0 0 1-.068-2.677c-.077-4.544.085-10.885 2.004-17.51 1.926-6.65 5.627-13.6 12.609-19.31 6.972-5.703 17.076-10.057 31.618-11.769l.46 3.912c-13.982 1.646-23.324 5.784-29.585 10.905-6.251 5.113-9.571 11.321-11.32 17.358-1.756 6.063-1.923 11.942-1.848 16.348.014.854.039 1.687.062 2.462.034 1.142.065 2.155.052 2.916-.011.622-.048 1.344-.227 1.941-.087.29-.28.809-.748 1.231Z" clip-rule="evenodd"/><path fill="#E9ECE0" fill-opacity=".33" fill-rule="evenodd" d="M796.682 672.279c.009 1.343 56.274-30.729 72.611-61.244l-72.611 61.244Z" clip-rule="evenodd"/><path fill="#E9ECE0" fill-opacity=".33" fill-rule="evenodd" d="M794.641 674.5a3.04 3.04 0 0 1-.965-2.202l6.009-.039a2.966 2.966 0 0 0-2.442-2.901c-.541-.096-.957-.004-1.006.006l-.004.001c-.095.02-.153.039-.154.039-.001.001.034-.011.112-.042.289-.117.806-.358 1.568-.75 1.497-.77 3.702-1.998 6.436-3.627 5.46-3.252 12.929-8.04 20.906-13.816 16.087-11.648 33.726-26.953 41.542-41.553l5.298 2.837c-8.521 15.915-27.184 31.903-43.316 43.583-8.132 5.889-15.752 10.775-21.355 14.112-2.797 1.666-5.117 2.961-6.763 3.808-.809.416-1.518.756-2.062.976a5.888 5.888 0 0 1-.992.317l-.004.001c-.137.029-.64.133-1.249.026a3.062 3.062 0 0 1-1.559-.776Z" clip-rule="evenodd"/><path fill="#E9ECE0" fill-opacity=".33" fill-rule="evenodd" d="M796.682 672.279c.009 1.343 56.274-30.729 72.611-61.244l-72.611 61.244Z" clip-rule="evenodd"/><path fill="#E9ECE0" fill-opacity=".33" fill-rule="evenodd" d="M794.641 674.5a3.04 3.04 0 0 1-.965-2.202l6.009-.039a2.966 2.966 0 0 0-2.442-2.901c-.541-.096-.957-.004-1.006.006l-.004.001c-.095.02-.153.039-.154.039-.001.001.034-.011.112-.042.289-.117.806-.358 1.568-.75 1.497-.77 3.702-1.998 6.436-3.627 5.46-3.252 12.929-8.04 20.906-13.816 16.087-11.648 33.726-26.953 41.542-41.553l5.298 2.837c-8.521 15.915-27.184 31.903-43.316 43.583-8.132 5.889-15.752 10.775-21.355 14.112-2.797 1.666-5.117 2.961-6.763 3.808-.809.416-1.518.756-2.062.976a5.888 5.888 0 0 1-.992.317l-.004.001c-.137.029-.64.133-1.249.026a3.062 3.062 0 0 1-1.559-.776ZM731.019 758.813c.009 1.343 33.014-15.251 66.025-30.836l-66.025 30.836Z" clip-rule="evenodd"/><path fill="#E9ECE0" fill-opacity=".33" fill-rule="evenodd" d="M729.221 761.247a3.062 3.062 0 0 1-1.207-2.419l6.009-.039a2.943 2.943 0 0 0-1.158-2.319 2.858 2.858 0 0 0-1.398-.571 2.444 2.444 0 0 0-.526-.008c-.087.008-.141.02-.149.021h.001c.01-.003.063-.016.171-.05.126-.039.292-.096.504-.174.867-.318 2.208-.882 4.005-1.683 3.569-1.592 8.693-4.011 14.884-6.976 4.109-1.968 8.682-4.174 13.563-6.528 9.79-4.723 20.822-10.044 31.841-15.246l2.565 5.434c-10.998 5.192-21.982 10.491-31.759 15.207-4.89 2.358-9.477 4.571-13.614 6.552-6.188 2.964-11.38 5.416-15.033 7.045-1.815.809-3.311 1.443-4.379 1.836-.507.186-1.054.369-1.536.469a3.918 3.918 0 0 1-1.242.068 3.132 3.132 0 0 1-1.542-.619ZM771.848 621.086c-.904.509-9.787 7.36.69 20.221l-.69-20.221Z" clip-rule="evenodd"/><path fill="#E9ECE0" fill-opacity=".33" fill-rule="evenodd" d="M766.289 626.069c1.179-3.896 3.975-6.053 4.721-6.473l1.679 2.98-.005.003c-.029.02-.168.112-.39.301a9.01 9.01 0 0 0-2.731 4.18c-.82 2.712-.671 7.063 4.302 13.168l-2.652 2.16c-5.504-6.757-6.151-12.262-4.924-16.319ZM761.267 624.946c-.192-.742-3.396-8.368-14.543-3.331l14.543 3.331Z" clip-rule="evenodd"/><path fill="#E9ECE0" fill-opacity=".33" fill-rule="evenodd" d="M760.952 623.084c.529.782.797 1.457.865 1.718l-1.103.285c-.028-.109-.232-.666-.705-1.365a7.328 7.328 0 0 0-2.206-2.125c-2.019-1.247-5.4-1.925-10.846.535l-.469-1.038c5.702-2.575 9.497-1.959 11.914-.466a8.469 8.469 0 0 1 2.55 2.456ZM723.426 658.148c1.019-1.446 7.99-19.515-17.552-31.645l17.552 31.645Z" clip-rule="evenodd"/><path fill="#E9ECE0" fill-opacity=".33" fill-rule="evenodd" d="M725.04 657.248c-.247.679-.507 1.231-.72 1.535l-1.793-1.265v.001l.012-.02.035-.06c.029-.053.065-.125.108-.215.085-.181.187-.424.296-.725.219-.603.46-1.418.647-2.403a19.11 19.11 0 0 0-.09-7.533c-1.239-5.822-5.613-13.121-18.134-19.067l.941-1.981c13.021 6.183 17.933 13.984 19.339 20.591.697 3.274.519 6.198.099 8.401a17.984 17.984 0 0 1-.74 2.741ZM771.848 621.086c-.904.509.108 2.979.69 20.221l-.69-20.221Z" clip-rule="evenodd"/><path fill="#E9ECE0" fill-opacity=".33" fill-rule="evenodd" d="M769.783 621.965c.025-.617.139-1.759 1.225-2.371l1.679 2.981a1.07 1.07 0 0 0 .527-.648c-.004.029-.01.085-.014.177-.018.45.03 1.227.14 2.689l.045.596c.221 2.922.588 7.779.862 15.86l-3.419.115c-.271-8.01-.634-12.812-.854-15.719l-.045-.597c-.103-1.374-.175-2.388-.146-3.083Zm3.436-.062a.152.152 0 0 1-.005.024l.005-.024ZM761.267 624.945c-.192-.741-2.144-.487-14.543-3.331l14.543 3.331Z" clip-rule="evenodd"/><path fill="#E9ECE0" fill-opacity=".33" fill-rule="evenodd" d="M760.824 623.967c.418.129.863.331.993.835l-1.103.285a.156.156 0 0 0 .042.076 1.095 1.095 0 0 0-.268-.108c-.365-.113-.975-.233-2.02-.428a84.697 84.697 0 0 0-.436-.081c-2.121-.394-5.641-1.048-11.437-2.378l.255-1.11c5.773 1.324 9.275 1.975 11.391 2.369l.436.081c1.016.189 1.705.322 2.147.459Zm-.062 1.201-.006-.005.006.005ZM723.424 658.148c1.019-1.447-2.346-4.507-15.863-30.623l15.863 30.623Z" clip-rule="evenodd"/><path fill="#E9ECE0" fill-opacity=".33" fill-rule="evenodd" d="M724.287 655.996c.394.925.654 1.906.034 2.785l-1.792-1.264a.221.221 0 0 0-.032.064c-.002-.068-.034-.27-.228-.724-.353-.826-1.061-2.095-2.276-4.225l-.507-.887c-2.475-4.329-6.581-11.51-12.898-23.715l1.948-1.008c6.297 12.164 10.385 19.315 12.855 23.636l.507.887c1.188 2.081 1.974 3.48 2.389 4.451Zm-1.792 1.613c-.001-.002-.002-.012.002-.028.001.021-.001.029-.002.028Z" clip-rule="evenodd"/><path fill="#E9ECE0" fill-opacity=".33" fill-rule="evenodd" d="M720.834 651.894c-7.807-3.04-10.613-3.63-12.151-4.26l12.151 4.26Z" clip-rule="evenodd"/><path fill="#E9ECE0" fill-opacity=".33" fill-rule="evenodd" d="M712.746 647.816c1.889.613 4.562 1.527 8.486 3.055l-.796 2.044c-3.883-1.512-6.516-2.412-8.366-3.012a169.22 169.22 0 0 0-1.549-.493c-.972-.306-1.697-.534-2.254-.762l.832-2.03c.471.193 1.058.377 1.95.658.472.148 1.028.323 1.697.54ZM716.976 645.616c-6.683-2.579-9.111-3.013-10.426-3.552l10.426 3.552Z" clip-rule="evenodd"/><path fill="#E9ECE0" fill-opacity=".33" fill-rule="evenodd" d="M710.058 642.079c1.628.505 3.928 1.266 7.293 2.564l-.75 1.944c-3.319-1.28-5.575-2.026-7.16-2.518-.484-.15-.92-.28-1.311-.397-.846-.253-1.488-.445-1.976-.645l.791-1.928c.391.16.879.306 1.636.532.406.121.89.266 1.477.448ZM713.549 638.787c-4.85-1.826-6.66-2.008-7.611-2.398l7.611 2.398Z" clip-rule="evenodd"/><path fill="#E9ECE0" fill-opacity=".33" fill-rule="evenodd" d="M708.536 636.113c1.205.33 2.899.841 5.353 1.765l-.684 1.816c-2.395-.902-4.031-1.394-5.181-1.709a79.963 79.963 0 0 0-.996-.264c-.152-.039-.294-.075-.431-.112a8.415 8.415 0 0 1-1.028-.322l.736-1.796c.173.071.409.141.789.242.118.031.251.066.398.103.297.077.649.168 1.044.277ZM771.848 621.084c-.904.51 11.659 7.778.69 20.222l-.69-20.222Z" clip-rule="evenodd"/><path fill="#E9ECE0" fill-opacity=".33" fill-rule="evenodd" d="M770.102 620.974a1.793 1.793 0 0 1 .908-1.377l1.679 2.98c.412-.232.754-.676.814-1.242a1.516 1.516 0 0 0-.127-.802c-.042-.089-.081-.142-.081-.142s.018.025.066.081c.119.137.256.28.44.472.152.16.337.353.57.604.921.992 2.199 2.485 3.138 4.432.949 1.968 1.554 4.409 1.113 7.253-.441 2.834-1.896 5.912-4.8 9.207l-2.566-2.262c2.581-2.928 3.668-5.425 3.986-7.469.315-2.035-.107-3.776-.814-5.244-.718-1.489-1.726-2.687-2.564-3.59a54.527 54.527 0 0 0-.443-.469c-.247-.26-.487-.512-.645-.694a3.269 3.269 0 0 1-.495-.722 1.914 1.914 0 0 1-.179-1.016ZM761.267 624.945c-.192-.741-7.747 6.839-14.543-3.331l14.543 3.331Z" clip-rule="evenodd"/><path fill="#E9ECE0" fill-opacity=".33" fill-rule="evenodd" d="M761.43 624.368a.632.632 0 0 1 .387.435l-1.103.285c.036.14.142.28.309.344.12.046.214.028.224.026h.001l.004-.001c0 .001-.038.013-.137.061-.131.064-.282.148-.472.252-.144.079-.311.171-.508.275-.859.457-2.092 1.049-3.557 1.33-1.471.283-3.18.254-4.972-.532-1.788-.785-3.613-2.302-5.357-4.912l.947-.633c1.654 2.475 3.323 3.824 4.868 4.502 1.542.676 3.009.705 4.299.457 1.298-.25 2.414-.779 3.238-1.217.155-.083.309-.167.453-.246.217-.119.412-.226.56-.299a1.75 1.75 0 0 1 .429-.157.718.718 0 0 1 .387.03ZM723.423 658.149c1.02-1.446-24.072-2.508-16.295-29.692l16.295 29.692Z" clip-rule="evenodd"/><path fill="#E9ECE0" fill-opacity=".33" fill-rule="evenodd" d="M724.47 657.621c.163.426.068.852-.149 1.16l-1.793-1.265a.963.963 0 0 0-.107.889.84.84 0 0 0 .248.35l-.004-.002c-.021-.011-.119-.064-.36-.157-.314-.12-.696-.248-1.167-.404-.37-.123-.795-.264-1.284-.435-2.123-.74-5.045-1.902-7.765-3.923-2.733-2.031-5.271-4.937-6.597-9.144-1.323-4.2-1.404-9.589.583-16.536l2.109.604c-1.901 6.645-1.762 11.582-.599 15.273 1.16 3.682 3.373 6.229 5.813 8.042 2.453 1.824 5.127 2.898 7.179 3.613.402.14.8.273 1.171.397.528.176.999.333 1.344.466.285.109.628.253.888.447.125.093.363.292.49.625ZM770.243 616.547c2.028.08 31.196-7.353 19.593-34.35l-19.593 34.35Z" clip-rule="evenodd"/><path fill="#E9ECE0" fill-opacity=".33" fill-rule="evenodd" d="M771.272 618.446c-.329.058-.747.119-1.107.105l.158-4.003-.051-.001c0-.002.09-.008.307-.046.261-.046.622-.123 1.068-.237.89-.228 2.074-.593 3.418-1.117 2.699-1.053 5.957-2.717 8.784-5.139 2.817-2.414 5.156-5.535 6.165-9.531 1.006-3.984.746-9.057-2.017-15.486l3.68-1.582c3.038 7.069 3.483 13.049 2.221 18.049-1.26 4.988-4.164 8.782-7.443 11.591-3.268 2.801-6.957 4.668-9.934 5.83a34.21 34.21 0 0 1-3.88 1.265 18.35 18.35 0 0 1-1.369.302ZM770.019 618.751c.709 1.119 18.271 13.798 36.895-3.157l-36.895 3.157Z" clip-rule="evenodd"/><path fill="#E9ECE0" fill-opacity=".33" fill-rule="evenodd" d="M769.801 619.705c-.17-.148-.365-.333-.481-.515l1.395-.885a.156.156 0 0 1-.009-.015c.002-.001.047.053.182.17.148.13.361.299.638.498.552.398 1.337.899 2.324 1.423a27.406 27.406 0 0 0 8.04 2.752c6.572 1.149 15.357.141 24.468-8.153l1.112 1.222c-9.514 8.66-18.823 9.79-25.865 8.559a29.03 29.03 0 0 1-8.529-2.921 22.116 22.116 0 0 1-2.516-1.541 10.58 10.58 0 0 1-.759-.594ZM763.869 626.345c1.08-.768 12.834-18.96-5.06-36.684l5.06 36.684Z" clip-rule="evenodd"/><path fill="#E9ECE0" fill-opacity=".33" fill-rule="evenodd" d="M765.568 627.088c-.138.175-.385.48-.683.691l-2.035-2.865c-.091.065-.14.116-.14.116s.03-.032.093-.112c.1-.127.241-.324.414-.592.345-.535.784-1.308 1.24-2.285a26.476 26.476 0 0 0 2.252-7.891c.776-6.356-.602-14.785-9.138-23.239l2.473-2.497c9.359 9.27 11.052 18.799 10.154 26.162a30.017 30.017 0 0 1-2.556 8.95 23.13 23.13 0 0 1-1.47 2.702c-.217.337-.422.627-.604.86ZM770.243 616.549c2.027.081 2.877-5.066 19.592-34.35l-19.592 34.35Z" clip-rule="evenodd"/><path fill="#E9ECE0" fill-opacity=".33" fill-rule="evenodd" d="M773.472 616.453c-.655.972-1.644 2.163-3.307 2.097l.159-4.002a.845.845 0 0 0-.551.153c.034-.032.157-.159.377-.487.546-.809 1.303-2.235 2.605-4.749l.537-1.04c2.627-5.084 6.987-13.52 14.806-27.219l3.479 1.986c-7.778 13.627-12.109 22.007-14.727 27.073l-.538 1.041c-1.254 2.423-2.134 4.099-2.84 5.147Zm-3.708-1.744.009-.008-.009.008ZM770.019 618.751c.709 1.119 5.436-.473 36.895-3.157l-36.895 3.157Z" clip-rule="evenodd"/><path fill="#E9ECE0" fill-opacity=".33" fill-rule="evenodd" d="M770.335 619.852c-.384-.087-.768-.27-1.014-.659l1.395-.885c-.042-.066-.089-.088-.089-.088.001 0 .02.009.072.02.152.035.432.057.933.041.993-.032 2.593-.205 5.209-.503l1.096-.126c5.349-.612 14.217-1.628 28.907-2.882l.141 1.647c-14.667 1.251-23.517 2.265-28.861 2.877l-1.095.125c-2.587.295-4.267.478-5.343.513-.534.018-.986.002-1.351-.08ZM763.868 626.342c1.081-.767-.752-5.405-5.06-36.684l5.06 36.684Z" clip-rule="evenodd"/><path fill="#E9ECE0" fill-opacity=".33" fill-rule="evenodd" d="M765.869 626.128c-.091.53-.338 1.19-.984 1.649l-2.034-2.866c-.376.267-.444.614-.445.622l.004-.044c.002-.032.004-.077.004-.137a5.9 5.9 0 0 0-.026-.517c-.08-.943-.326-2.488-.763-5.102l-.181-1.088c-.889-5.313-2.364-14.126-4.377-28.745l3.482-.48c2.006 14.57 3.474 23.345 4.361 28.647l.182 1.088c.425 2.55.703 4.264.798 5.384.046.55.063 1.099-.021 1.589ZM770.243 616.549c21.133-17.166 15.452-16.259 19.592-34.35l-19.592 34.35Z" clip-rule="evenodd"/><path fill="#E9ECE0" fill-opacity=".33" fill-rule="evenodd" d="M788.262 600.49c-1.964 4.722-6.257 9.086-16.755 17.613l-2.526-3.109c10.636-8.639 14.069-12.405 15.582-16.043.759-1.822 1.072-3.701 1.454-6.443l.099-.72c.358-2.595.802-5.815 1.768-10.036l3.905.894c-.925 4.044-1.348 7.108-1.705 9.696l-.1.718c-.377 2.712-.741 5.072-1.722 7.43Z" clip-rule="evenodd"/><path fill="#E9ECE0" fill-opacity=".33" fill-rule="evenodd" d="M770.243 616.549c9.107-11.664-2.91-21.004 19.592-34.35l-19.592 34.35Z" clip-rule="evenodd"/><path fill="#E9ECE0" fill-opacity=".33" fill-rule="evenodd" d="M776.566 603.811c-.415 4.195-.893 9.04-4.745 13.972l-3.157-2.465c3.075-3.938 3.418-7.316 3.821-11.274.14-1.375.287-2.819.557-4.38.513-2.956 1.5-6.054 3.912-9.301 2.387-3.213 6.088-6.462 11.86-9.885l2.043 3.445c-5.479 3.25-8.714 6.173-10.688 8.829-1.948 2.623-2.745 5.091-3.18 7.596-.189 1.091-.303 2.25-.423 3.463Z" clip-rule="evenodd"/><path fill="#E9ECE0" fill-opacity=".33" fill-rule="evenodd" d="M770.243 616.549c2.027.081-8.918-32.524 19.592-34.35l-19.592 34.35Z" clip-rule="evenodd"/><path fill="#E9ECE0" fill-opacity=".33" fill-rule="evenodd" d="M772.064 617.575a2.172 2.172 0 0 1-1.899.976l.159-4.003a1.836 1.836 0 0 0-1.592.803c-.11.165-.163.306-.187.38-.025.078-.034.131-.037.144l-.001.006s.005-.041.006-.139a7.312 7.312 0 0 0-.014-.459c-.031-.554-.103-1.258-.193-2.139-.045-.446-.096-.938-.148-1.479-.298-3.106-.605-7.416-.035-11.832.571-4.415 2.038-9.108 5.429-12.833 3.43-3.768 8.617-6.316 16.157-6.799l.256 3.997c-6.715.43-10.851 2.642-13.451 5.498-2.638 2.899-3.907 6.695-4.418 10.65-.51 3.952-.243 7.893.05 10.935.043.454.089.899.132 1.326.097.949.185 1.804.221 2.453.025.452.039.99-.037 1.458a2.657 2.657 0 0 1-.398 1.057Z" clip-rule="evenodd"/><path fill="#E9ECE0" fill-opacity=".33" fill-rule="evenodd" d="M770.019 618.752c.709 1.12 24.382-17.713 36.896-3.157l-36.896 3.157Z" clip-rule="evenodd"/><path fill="#E9ECE0" fill-opacity=".33" fill-rule="evenodd" d="M770.181 619.623c-.16.006-.597-.016-.86-.431l1.395-.885a.696.696 0 0 0-.595-.335l-.039.003s.02-.004.065-.019c.153-.052.403-.165.77-.353a71.361 71.361 0 0 0 1.844-1.002c.359-.199.747-.415 1.164-.644 2.524-1.386 5.986-3.205 9.833-4.602 7.637-2.772 17.165-3.999 23.783 3.699l-1.253 1.077c-5.896-6.859-14.461-5.947-21.966-3.223-3.724 1.353-7.096 3.122-9.601 4.497-.395.217-.772.426-1.126.622-.756.42-1.411.783-1.924 1.046a7.826 7.826 0 0 1-.994.448c-.132.045-.31.095-.496.102ZM763.867 626.344c1.081-.767-18.95-23.434-5.06-36.683l5.06 36.683Z" clip-rule="evenodd"/><path fill="#E9ECE0" fill-opacity=".33" fill-rule="evenodd" d="M765.657 626.057c.023.264.039 1.145-.774 1.722l-2.034-2.866a1.63 1.63 0 0 0-.693 1.452c.011.12.035.206.046.238l-.001-.001a5.802 5.802 0 0 0-.332-.627 69.469 69.469 0 0 0-1.07-1.747c-.219-.35-.458-.733-.716-1.15-1.52-2.459-3.547-5.871-5.169-9.709-3.195-7.556-5.118-17.542 2.679-24.978l2.425 2.543c-6.093 5.812-4.946 13.785-1.867 21.067 1.514 3.581 3.424 6.808 4.921 9.229l.666 1.069c.464.743.873 1.4 1.171 1.912.212.367.423.752.558 1.094.063.157.162.431.19.752Zm-3.45.559-.005-.013a.056.056 0 0 0 .005.013ZM731.019 758.809c.009 1.343 5.23-114.915 38.241-130.5l-38.241 130.5Z" clip-rule="evenodd"/><path fill="#E9ECE0" fill-opacity=".33" fill-rule="evenodd" d="m728.016 758.918-.001-.086 6.009-.04-.002-.073a5.135 5.135 0 0 0-.018-.244c-.042-.262-1.673-2.355-4.083-2.448-1.095.744-1.814 2.059-1.852 2.233a4.707 4.707 0 0 0-.031.198l-.007.063-.002.027-.001.009.002-.038.007-.104.051-.856c.047-.786.12-1.982.225-3.532.209-3.101.545-7.617 1.051-13.122 1.011-11.005 2.705-25.986 5.44-41.516 2.731-15.506 6.521-31.681 11.758-45.021 5.161-13.144 12.031-24.343 21.415-28.773l2.565 5.434c-7.121 3.362-13.283 12.54-18.386 25.536-5.026 12.8-8.732 28.527-11.434 43.866-2.697 15.315-4.373 30.12-5.374 41.023a535.124 535.124 0 0 0-1.039 12.978c-.104 1.53-.176 2.71-.222 3.486l-.052.867-.016.237-.007.079-.008.077c-.005.036-.02.138-.032.206-.039.176-.758 1.492-1.854 2.236-2.41-.093-4.04-2.187-4.083-2.45-.004-.035-.007-.078-.01-.119l-.009-.133Z" clip-rule="evenodd"/><path fill="#E9ECE0" fill-opacity=".33" fill-rule="evenodd" d="M731.018 758.813c.009 1.343 7.959-86.117-9.916-103.052l9.916 103.052Z" clip-rule="evenodd"/><path fill="#E9ECE0" fill-opacity=".33" fill-rule="evenodd" d="M728.031 759.146a3.195 3.195 0 0 1-.018-.314l6.009-.039v-.002c0-.022 0-.14-.017-.289a5.228 5.228 0 0 0-.131-.609c-.234-.534-1.96-1.933-3.63-1.968-.94.436-1.847 1.436-1.987 1.722a5.663 5.663 0 0 0-.14.405c-.031.117-.047.209-.051.229v.002c-.007.04-.012.071-.013.084l.003-.032c.011-.094.03-.277.057-.557.053-.552.128-1.415.219-2.553.182-2.273.422-5.622.654-9.736.465-8.231.898-19.497.776-31.317-.122-11.84-.8-24.142-2.532-34.48-.865-5.169-1.981-9.768-3.385-13.537-1.418-3.807-3.047-6.544-4.809-8.213l4.133-4.362c2.707 2.564 4.739 6.265 6.307 10.477 1.583 4.25 2.779 9.252 3.681 14.643 1.805 10.781 2.49 23.435 2.614 35.41.124 11.993-.316 23.399-.785 31.718a434.65 434.65 0 0 1-.664 9.876 179.397 179.397 0 0 1-.227 2.643 28.16 28.16 0 0 1-.07.684v.002a4.95 4.95 0 0 1-.043.306c-.006.029-.024.131-.057.255a5.28 5.28 0 0 1-.141.412c-.142.287-1.049 1.288-1.99 1.725-1.67-.035-3.397-1.435-3.631-1.97a5.497 5.497 0 0 1-.132-.615ZM830.686 601.997c.008 1.342 3.964-81.216-19.667-102.988l19.667 102.988Z" clip-rule="evenodd"/><path fill="#E9ECE0" fill-opacity=".33" fill-rule="evenodd" d="M827.685 602.18a3.853 3.853 0 0 1-.005-.162l6.009-.04v-.001c0-.01 0-.066-.004-.137a5.07 5.07 0 0 0-.028-.267c-.04-.217-.61-1.416-1.446-2.148-2.24-.329-4.267 1.359-4.408 1.743a5.433 5.433 0 0 0-.083.367 2.742 2.742 0 0 0-.022.165v.001l-.004.045.003-.043c.005-.095.015-.272.026-.534.023-.519.054-1.332.085-2.405.062-2.145.124-5.316.126-9.231.003-7.834-.239-18.62-1.212-30.107-.974-11.505-2.674-23.623-5.559-34.157-2.912-10.634-6.912-19.195-12.181-24.049l4.072-4.42c6.546 6.032 10.913 15.956 13.905 26.882 3.02 11.028 4.761 23.548 5.751 35.237.991 11.705 1.236 22.668 1.233 30.616a335.073 335.073 0 0 1-.128 9.403 162.386 162.386 0 0 1-.089 2.496 35.57 35.57 0 0 1-.031.628 5.839 5.839 0 0 1-.018.237v.001c-.002.019-.009.095-.024.187-.01.062-.05.248-.084.372-.142.385-2.169 2.074-4.409 1.744-.836-.732-1.406-1.932-1.447-2.15a4.989 4.989 0 0 1-.028-.273ZM651.928 824.233c.009 1.342 13.297-16.818 26.874-53.053l-26.874 53.053Z" clip-rule="evenodd"/><path fill="#E9ECE0" fill-opacity=".33" fill-rule="evenodd" d="M649.33 825.777a3.103 3.103 0 0 1-.408-1.524l6.009-.039a2.897 2.897 0 0 0-.388-1.426 2.96 2.96 0 0 0-2.128-1.456 2.9 2.9 0 0 0-1.502.167c-.255.1-.432.213-.511.266-.118.08-.194.147-.219.17.014-.014.047-.048.1-.107.276-.311.772-.941 1.477-1.947 1.39-1.981 3.424-5.171 5.898-9.558 4.943-8.766 11.594-22.223 18.328-40.197l5.628 2.109c-6.843 18.262-13.625 32.002-18.722 41.04-2.545 4.514-4.684 7.877-6.212 10.057-.753 1.073-1.404 1.924-1.909 2.491-.203.228-.569.628-1.012.926-.129.087-.35.225-.643.34a3.09 3.09 0 0 1-1.599.184 3.044 3.044 0 0 1-2.187-1.496Zm.844-3.833.009-.009-.009.009ZM860.015 313.431C803.883 136.341 637.639 8.529 442.129 9.803 201.702 11.37 8.069 207.543 9.636 447.97c1.566 240.426 197.739 434.06 438.166 432.493 42.932-.28 84.367-6.765 123.464-18.596l1.74 5.752c-39.642 11.995-81.65 18.569-125.165 18.853C204.096 888.059 5.215 691.753 3.627 448.008 2.038 204.264 198.344 5.382 442.089 3.794c198.219-1.291 366.749 128.293 423.654 307.821l-5.728 1.816Z" clip-rule="evenodd"/></svg>