<svg width="139" height="19" fill="none" xmlns="http://www.w3.org/2000/svg"><g clip-path="url(#a)"><path d="M8.757 11.899c0 2.13-.326 3.708-.98 4.731-.647 1.024-1.629 1.536-2.946 1.536-1.267 0-2.23-.526-2.889-1.577-.658-1.057-.987-2.62-.987-4.69 0-2.114.318-3.68.954-4.698.642-1.019 1.616-1.528 2.922-1.528 1.278 0 2.252.529 2.922 1.586.67 1.051 1.004 2.598 1.004 4.64Zm-6.906 0c0 1.881.246 3.273.739 4.175.492.897 1.24 1.345 2.241 1.345 1.046 0 1.807-.465 2.283-1.395.481-.93.722-2.304.722-4.125 0-1.793-.24-3.154-.722-4.084-.476-.93-1.237-1.395-2.283-1.395-1.046 0-1.804.465-2.274 1.395-.47.93-.706 2.291-.706 4.084ZM15.373 18h-.813V9.16c0-.803.033-1.636.1-2.499a5.31 5.31 0 0 1-.258.24c-.089.078-.944.75-2.565 2.018l-.473-.59 3.295-2.465h.714V18ZM128.757 11.899c0 2.13-.326 3.708-.979 4.731-.648 1.024-1.63 1.536-2.947 1.536-1.267 0-2.23-.526-2.889-1.577-.658-1.057-.987-2.62-.987-4.69 0-2.114.318-3.68.954-4.698.642-1.019 1.616-1.528 2.922-1.528 1.278 0 2.252.529 2.922 1.586.67 1.051 1.004 2.598 1.004 4.64Zm-6.906 0c0 1.881.246 3.273.739 4.175.492.897 1.239 1.345 2.241 1.345 1.046 0 1.807-.465 2.283-1.395.481-.93.722-2.304.722-4.125 0-1.793-.241-3.154-.722-4.084-.476-.93-1.237-1.395-2.283-1.395-1.046 0-1.804.465-2.274 1.395-.471.93-.706 2.291-.706 4.084Zm12.318-1.195c1.295 0 2.314.312 3.055.938.747.625 1.121 1.485 1.121 2.581 0 1.245-.388 2.214-1.162 2.905-.775.692-1.843 1.038-3.204 1.038a8.192 8.192 0 0 1-1.719-.174c-.542-.122-.996-.294-1.361-.515v-.855c.598.304 1.129.518 1.594.64.465.115.96.174 1.486.174 1.062 0 1.914-.28 2.556-.839.642-.564.963-1.325.963-2.283 0-.902-.313-1.61-.938-2.124-.625-.515-1.475-.772-2.548-.772-.72 0-1.472.107-2.258.323l-.498-.323.481-5.554h5.844v.797h-5.063l-.374 4.283c.863-.16 1.538-.24 2.025-.24Z" fill="#333"/><path opacity=".279" fill="#DCDCDC" d="M24 9h88v1.5H24z"/><path d="M24 9h15v1.5H24V9Z" fill="#333"/></g><defs><clipPath id="a"><path fill="#fff" d="M0 0h139v19H0z"/></clipPath></defs></svg>