<svg width="64" height="64" fill="none" xmlns="http://www.w3.org/2000/svg"><path d="M49.105 16.557a.996.996 0 0 1-.502-.52 18.007 18.007 0 0 0-33.206 0 .997.997 0 0 1-.502.52A17.062 17.062 0 0 0 5 31.952c-.025 9.165 7.405 16.81 16.561 17.042 3.332.09 6.615-.806 9.439-2.576V58a1 1 0 0 0 2 0V46.419a16.88 16.88 0 0 0 9.44 2.576c9.156-.232 16.586-7.878 16.56-17.043a17.063 17.063 0 0 0-9.895-15.395ZM42.39 46.995a14.867 14.867 0 0 1-8.714-2.52 3.031 3.031 0 0 0-.675-.337v-11.52l11.447-5.724a1 1 0 1 0-.895-1.789L33 30.382V22a1 1 0 0 0-2 0v14.382l-10.552-5.277a1 1 0 0 0-.896 1.79L31 38.617v5.52a3.018 3.018 0 0 0-.675.338 14.847 14.847 0 0 1-8.713 2.519C13.532 46.79 6.978 40.045 7 31.958a15.055 15.055 0 0 1 8.732-13.585 2.991 2.991 0 0 0 1.509-1.563 16.008 16.008 0 0 1 29.518 0c.29.692.828 1.25 1.51 1.563A15.055 15.055 0 0 1 57 31.957c.023 8.088-6.532 14.834-14.611 15.038Z" fill="#5B6460"/></svg>