<svg width="115" height="17" fill="none" xmlns="http://www.w3.org/2000/svg"><path d="M33.414 9.18H1.653c-.342 0-.62-.305-.62-.682 0-.376.278-.682.62-.682h31.761c.342 0 .62.306.62.682 0 .377-.278.682-.62.682Z" fill="#DADADA"/><path d="M8.88 16a.312.312 0 0 1-.214-.084L1.088 8.702A.283.283 0 0 1 1 8.498c0-.076.032-.15.088-.203l7.578-7.21a.313.313 0 0 1 .427 0 .278.278 0 0 1 0 .406L1.73 8.498l7.364 7.01a.278.278 0 0 1 0 .407.31.31 0 0 1-.214.085Z" stroke="#DADADA" stroke-width=".682"/><path d="M81.586 9.18h31.761c.342 0 .619-.305.619-.682 0-.376-.277-.682-.619-.682H81.586c-.342 0-.62.306-.62.682 0 .377.278.682.62.682Z" fill="#333"/><path d="M106.121 16a.31.31 0 0 0 .213-.084l7.578-7.214a.283.283 0 0 0 .088-.204.283.283 0 0 0-.088-.203l-7.578-7.21a.313.313 0 0 0-.427 0 .278.278 0 0 0 0 .406l7.363 7.007-7.363 7.01a.278.278 0 0 0 0 .407.308.308 0 0 0 .214.085Z" fill="#333" stroke="#333" stroke-width=".682"/></svg>