<svg width="86" height="86" fill="none" xmlns="http://www.w3.org/2000/svg"><path d="m37.317 44.586-6.904-6.961-3.758 3.79 10.662 10.75 21.323-21.5-3.758-3.79-17.565 17.71Z" fill="#545A2F"/><path d="m42.648 80.625-16.462-8.85a29.377 29.377 0 0 1-11.353-10.872 29.698 29.698 0 0 1-4.171-15.215V10.75a5.403 5.403 0 0 1 1.563-3.8 5.314 5.314 0 0 1 3.768-1.575h53.31a5.314 5.314 0 0 1 3.767 1.576 5.403 5.403 0 0 1 1.563 3.799v34.938a29.7 29.7 0 0 1-4.171 15.215 29.376 29.376 0 0 1-11.353 10.872l-16.462 8.85ZM15.992 10.75v34.938a24.298 24.298 0 0 0 3.414 12.45 24.034 24.034 0 0 0 9.29 8.894l13.95 7.5L56.6 67.034a24.034 24.034 0 0 0 9.29-8.895 24.299 24.299 0 0 0 3.413-12.452V10.75h-53.31Z" fill="#545A2F"/></svg>