<svg width="85" height="85" fill="none" xmlns="http://www.w3.org/2000/svg"><path d="M67.734 50.469A27.925 27.925 0 0 0 42.5 66.489a27.925 27.925 0 0 0-25.234-16.02H2.656v2.656c0 15.379 12.512 27.89 27.89 27.89h23.907c15.38 0 27.89-12.511 27.89-27.89v-2.656H67.735ZM30.547 75.703c-11.552 0-21.105-8.719-22.423-19.922h9.142c11.551 0 21.104 8.72 22.422 19.922h-9.141Zm23.906 0h-9.141C46.63 64.5 56.182 55.781 67.734 55.781h9.142c-1.318 11.203-10.871 19.922-22.423 19.922Z" fill="#545A2F"/><path d="M28.095 43.628a14.503 14.503 0 0 0 4.075 7.878l.778.778h1.1a14.502 14.502 0 0 0 8.452-2.689 14.503 14.503 0 0 0 8.452 2.69h1.1l.779-.778a14.503 14.503 0 0 0 4.075-7.878 14.504 14.504 0 0 0 7.878-4.075l.778-.779v-1.1a14.502 14.502 0 0 0-2.69-8.453 14.502 14.502 0 0 0 2.69-8.452v-1.1l-.778-.778a14.503 14.503 0 0 0-7.878-4.075 14.504 14.504 0 0 0-4.075-7.878l-.778-.778h-1.1A14.503 14.503 0 0 0 42.5 8.85a14.502 14.502 0 0 0-8.452-2.69h-1.1l-.778.778a14.503 14.503 0 0 0-4.076 7.878 14.503 14.503 0 0 0-7.878 4.075l-.777.778v1.1a14.502 14.502 0 0 0 2.688 8.453 14.503 14.503 0 0 0-2.69 8.453v1.1l.779.778a14.502 14.502 0 0 0 7.878 4.075Zm-.62-16.284a9.226 9.226 0 0 1-2.657-5.445 9.225 9.225 0 0 1 5.729-1.973h2.656v-2.657a9.225 9.225 0 0 1 1.973-5.728 9.225 9.225 0 0 1 5.445 2.656l1.88 1.877 1.877-1.878a9.226 9.226 0 0 1 5.446-2.656 9.226 9.226 0 0 1 1.973 5.73v2.656h2.656a9.226 9.226 0 0 1 5.729 1.973 9.226 9.226 0 0 1-2.656 5.445l-1.877 1.878 1.878 1.879a9.225 9.225 0 0 1 2.656 5.445 9.226 9.226 0 0 1-5.73 1.973h-2.656v2.657a9.226 9.226 0 0 1-1.973 5.728 9.226 9.226 0 0 1-5.445-2.656L42.5 42.37l-1.878 1.877a9.226 9.226 0 0 1-5.446 2.657 9.226 9.226 0 0 1-1.973-5.73V38.52h-2.656a9.225 9.225 0 0 1-5.729-1.973 9.225 9.225 0 0 1 2.657-5.445l1.877-1.879-1.878-1.878Z" fill="#545A2F"/></svg>